<svg xmlns="http://www.w3.org/2000/svg" viewBox="0 0 100 60" xml:space="preserve"><linearGradient id="a" gradientUnits="userSpaceOnUse" x1="-307.382" y1="-238.976" x2="-207.399" y2="-238.976" gradientTransform="translate(307.491 268.873)"><stop offset="0" style="stop-color:#ffffc6"/><stop offset=".578" style="stop-color:#ffcc61"/><stop offset="1" style="stop-color:#fde18b"/></linearGradient><path fill="url(#a)" d="M90.1 59.9 9.9 60C4.5 60 0 55.5 0 50V10C0 4.5 4.4.1 9.9.1H90c5.5 0 9.9 4.4 9.9 9.9v40c.1 5.5-4.3 9.9-9.8 9.9z"/><path fill="#E8AB5B" d="M98.9 19.4v-1.1H68.3v-5.5L50.2 1.7 32 12.8v5.5H1.4v1.1H32v2.2H1.4v1.1H32v15H1.4v1.1H32v2.1L1.5 41v1.1h30.6v5.5l18.2 11.1 18.1-11.1v-5.5H99V41H68.4v-2.1H99v-1.1H68.4v-15H99v-1.1H68.4v-2.2l30.5-.1zm-35.8-3.5L50.9 8.8V3.6l15.7 9.6-3.5 2.7zM50.2 50.8l-12.5-7.3V16.8l12.5-7.3 12.5 7.3v26.7l-12.5 7.3zm-.7-42L37.2 16l-3.4-2.8 15.7-9.6v5.2zm-13 8.1v26.6l-3 2.5V14.5l3 2.4zm.7 27.6 12.3 7.2v5.2l-15.7-9.6 3.4-2.8zm13.7 7.2 12.3-7.2 3.4 2.8-15.7 9.6v-5.2zm13-8.2V16.9l3-2.5L67 46l-3.1-2.5z"/><path fill="#E8AB5B" d="M90.1 1.4c4.7 0 8.6 3.9 8.6 8.6v40c0 2.3-.9 4.5-2.5 6.1-1.6 1.6-3.8 2.5-6.1 2.5H10c-4.7 0-8.6-3.9-8.6-8.6V10c0-2.3.9-4.5 2.5-6.1C5.5 2.3 7.7 1.4 10 1.4h80.1m0-1.4H10C4.4.1 0 4.5 0 10v40c0 5.5 4.5 10 9.9 10H90c5.5 0 9.9-4.4 9.9-9.9v-40C100 4.5 95.5 0 90.1 0z"/></svg>