<svg width="230" height="54" fill="none" xmlns="http://www.w3.org/2000/svg"><g clip-path="url(#a)" fill="#fff"><path d="M68.993 22.618c-2.86-.185-5.604-.231-9.418-.231 0 4.528.186 7.808.419 11.297H51.32c.233-5.221.35-8.27.35-13.608 0-5.752-.07-8.963-.35-14.554h18.092v5.521c-2.628-.185-6.023-.185-9.674-.185-.116 1.802-.163 4.598-.163 6.1 3.907 0 6.628-.07 9.418-.278v5.938ZM85.387 13.284c1.162 0 1.976.07 2.744.462l-2.535 8.271c-.86-.346-1.651-.531-2.767-.531-1.116 0-2.093.392-2.767 1.386a49.531 49.531 0 0 0-.186 4.205c0 2.033.046 4.135.186 6.63h-8.186c.233-3.673.35-5.937.35-9.657 0-4.02-.07-6.33-.35-10.304h7.488l.512 4.944c1.232-3.881 3.162-5.406 5.557-5.406h-.046ZM95.85 34.123c-3.58 0-6.278-2.98-6.278-6.93 0-2.52.186-4.136.186-6.747 0-2.61.047-4.135-.186-6.7h8.186c-.163 2.45-.233 3.95-.233 6.446 0 2.31 0 3.881.163 5.475.186 1.849 1 2.726 1.976 2.726 1.047 0 1.744-.53 2.442-1.409.163-1.617.163-3.72.163-5.937 0-2.842 0-4.482-.163-7.278h8.185c-.279 3.72-.395 5.868-.395 9.657 0 4.02.07 6.33.395 10.304h-7.72l-.395-3.188c-1.535 2.495-3.79 3.604-6.279 3.604l-.046-.023ZM117.57 11.713c-3 0-4.628-1.871-4.628-4.112s1.628-4.066 4.628-4.066c2.999 0 4.511 1.871 4.511 4.066s-1.628 4.112-4.511 4.112Zm4.022 21.994h-8.185c.233-3.673.349-5.937.349-9.657 0-4.02-.07-6.33-.349-10.304h8.185c-.279 3.997-.348 6.284-.348 10.304 0 3.72.116 5.984.348 9.657ZM133.428 18.898c0 2.565.047 5.683.163 7.139.163 1.848 1.279 2.634 2.535 2.634 1.255 0 2.162-.231 3.116-.878l1 4.181c-1.535 1.294-4.465 2.149-7.534 2.149-3.977 0-6.86-2.564-6.86-6.93 0-2.981.186-4.83.186-8.272h-2.884v-5.175h2.884c0-1.871 0-3.142-.07-4.898l8.022-1.455c-.186 2.102-.395 4.413-.395 6.353h5.558v5.175h-5.744l.023-.023ZM141.335 20.585c0-9.31 7.022-15.572 15.928-15.572 3.674 0 6.325.74 8.604 1.64l-1.744 5.407c-1.86-.878-4.162-1.617-6.395-1.617-4.976 0-7.859 3.373-7.859 9.125 0 6.1 3.627 9.126 7.487 9.126 2.628 0 4.697-.809 6.72-1.964l2.047 5.129c-2.744 1.41-5.79 2.218-9.674 2.218-8.79 0-15.091-5.476-15.091-13.538l-.023.046ZM189.027 33.707h-7.603l-.396-3.188c-1.535 2.495-3.93 3.604-6.371 3.604-3.907 0-7.418-3.211-7.418-9.61 0-6.4 5.441-11.229 11.696-11.229 2.628 0 4.116.231 5.674.693l4.511-1.155c-.395 3.905-.534 6.4-.534 10.35 0 4.251.116 6.284.418 10.535h.023Zm-10.487-5.406c.93 0 1.814-.393 2.465-1.34.07-1.27.116-2.518.116-4.112 0-2.264-.046-3.79-.116-4.76-.628-.277-1.163-.392-2.163-.392-1.93 0-3.581 1.502-3.581 4.99 0 4.135 1.396 5.59 3.279 5.59v.024ZM205.863 13.284c1.163 0 1.976.07 2.744.462l-2.535 8.271c-.86-.346-1.651-.531-2.767-.531-1.116 0-2.093.392-2.767 1.386a49.656 49.656 0 0 0-.186 4.205c0 2.033.046 4.135.186 6.63h-8.185c.232-3.673.348-5.937.348-9.657 0-4.02-.069-6.33-.348-10.304h7.487l.512 4.944c1.232-3.881 3.162-5.406 5.557-5.406h-.046ZM230 3.696c-.302 5.984-.419 9.473-.419 15.526 0 5.637.163 8.894.419 14.485h-7.604l-.395-3.188c-1.535 2.495-3.93 3.604-6.372 3.604-3.906 0-7.441-3.211-7.441-9.61 0-6.4 5.488-11.229 11.72-11.229 1 0 1.511.07 2.232.185 0-2.957-.186-6.215-.395-9.773H230Zm-10.487 24.605c.93 0 1.813-.393 2.465-1.34.069-1.27.116-2.518.116-4.112 0-2.264-.047-3.79-.116-4.76-.628-.277-1.163-.392-2.163-.392-1.93 0-3.628 1.502-3.628 4.99 0 4.136 1.419 5.591 3.326 5.591v.023ZM38.74 6.215l.163.138.233.208.209.231.046.046c.442.601.628 1.34.512 2.057l-.07.323-.093.254c-2.814 7.717-1.907 14.601 1.93 21.833a11.346 11.346 0 0 1 5.744 2.656 11.264 11.264 0 0 1 3.418 5.29c.605 2.057.628 4.229.047 6.308a11.336 11.336 0 0 1-3.349 5.36 11.53 11.53 0 0 1-5.697 2.75c-2.116.369-4.302.115-6.302-.717a11.5 11.5 0 0 1-4.953-3.95 11.438 11.438 0 0 1-2.07-5.961V41.886c.117-2.172.838-4.251 2.094-6.007 1.255-1.756 3-3.12 5.022-3.928-2.697-5.752-3.837-11.505-3-17.581-.465.208-.953.416-1.418.624l.28-.185c-6.396 4.159-10.14 8.502-11.349 12.938a12.8 12.8 0 0 1 4.186 4.851 12.978 12.978 0 0 1 1.302 6.261 12.583 12.583 0 0 1-1.93 6.1 12.678 12.678 0 0 1-4.674 4.389 13.015 13.015 0 0 1-6.232 1.594 12.78 12.78 0 0 1-6.232-1.617 12.873 12.873 0 0 1-4.65-4.413C.767 43.064.093 40.962 0 38.812v-1.2a12.973 12.973 0 0 1 1.372-5.152 12.849 12.849 0 0 1 3.348-4.136 12.765 12.765 0 0 1 4.767-2.426 13.046 13.046 0 0 1 5.349-.277c.953-3.05 2.697-5.937 5.208-8.687-5.115-.277-10.231-2.148-15.277-5.637L4 10.766l-.14-.116-.14-.115-.116-.116-.116-.138-.116-.139-.093-.138-.093-.162-.14-.3-.116-.324-.07-.323v-.116l-.023-.323v-.324l.093-.323.116-.324.093-.184.07-.14.093-.16.093-.14.116-.138.117-.139.116-.115.14-.116.139-.115c11.464-8.271 23.253-8.271 34.717 0v-.023Z"/></g><defs><clipPath id="a"><path fill="#fff" d="M0 0h230v53.83H0z"/></clipPath></defs></svg>