<svg width="30" height="30" fill="none" xmlns="http://www.w3.org/2000/svg"><g clip-path="url(#a)" fill="#A7A7A7"><path d="m3.53 13.87-1.765-.866-.883-.867L0 10.403V8.669h3.53c0 .48.17.89.51 1.233.348.333.766.5 1.254.5h3.53c.394 0 .745-.113 1.047-.338L0 5.2V3.468l.882-1.734.883-.867L3.529 0h7.06l1.764.867.882.867.883 1.734V5.2h-3.53c0-.47-.174-.876-.523-1.219a1.711 1.711 0 0 0-1.241-.514h-3.53a1.68 1.68 0 0 0-1.06.352l9.884 4.85v1.733l-.883 1.734-.882.867-1.765.867H3.53ZM19.412 13.87l-1.765-.866-.882-.867-.883-1.734V3.468l.883-1.734.882-.867L19.412 0h7.059l1.764.867.883.867L30 3.468v3.467c0 .488-.174.898-.523 1.233-.342.333-.753.501-1.242.501h-8.823c0 .48.17.89.51 1.233.349.333.766.5 1.255.5H30v3.469H19.412Zm7.059-8.669c0-.47-.175-.876-.524-1.219a1.711 1.711 0 0 0-1.241-.514h-3.53c-.488 0-.905.171-1.254.514-.342.343-.51.75-.51 1.22h7.059ZM3.53 29.167 1.764 28.3l-.883-.867L0 25.699v-1.734l.882-1.734.883-.867 1.764-.866h7.06c0-.47-.175-.877-.524-1.22a1.711 1.711 0 0 0-1.241-.514h-7.06v-3.468h8.824l1.765.867.882.867.883 1.734v10.403h-3.53v-1.734c0 .487-.174.9-.523 1.233-.341.333-.753.5-1.241.5H3.529Zm5.294-3.468c.478 0 .89-.168 1.24-.5.35-.344.524-.754.524-1.234H4.412a.866.866 0 0 0-.883.867c0 .233.083.45.25.622a.9.9 0 0 0 .633.245h4.412ZM19.412 29.167l-1.765-.867-.882-.867-.883-1.734v-1.734h3.53c0 .48.17.89.51 1.233.349.333.766.501 1.255.501h3.529c.394 0 .745-.114 1.047-.339l-9.87-4.862v-1.734l.882-1.734.882-.867 1.765-.867h7.059l1.764.867.883.867.882 1.734v1.734h-3.53c0-.47-.174-.877-.523-1.22a1.711 1.711 0 0 0-1.241-.514h-3.53a1.68 1.68 0 0 0-1.06.352L30 23.966v1.733l-.882 1.734-.883.867-1.764.867h-7.06Z"/></g><defs><clipPath id="a"><path fill="#fff" d="M0 0h30v29.167H0z"/></clipPath></defs></svg>