<svg width="18" height="28" fill="none" xmlns="http://www.w3.org/2000/svg"><g clip-path="url(#a)" fill="#A7A7A7"><path d="M12.576 6.648s-.699-2.488-2.98-1.976c0 0-2.17.695-1.214 3.549l1.178 3.695s-2.612-.622-3.053 2.158c0 0-2.796-1.023-3.128 1.848 0 0-3.25-.86-2.894 2.688l1.374 4.147s2.796 6.146 9.467 4.05c0 0 7.407-2.781 4.758-9.904L12.577 6.647v.001ZM17.177 6.21s-2.134-1.573-3.568.769l1.876 5.488 2.098-3.293s.882-1.866-.405-2.963l-.001-.001ZM13.018 4.966s3.09-1.207 3.053-3.11c0 0-.073-2.78-3.053-1.5 0 0-2.3-1.317-2.87 1.116 0 0-.551 2.122 2.87 3.494Z"/></g><defs><clipPath id="a"><path fill="#fff" transform="translate(.459)" d="M0 0h17.418v27.244H0z"/></clipPath></defs></svg>