<svg xmlns="http://www.w3.org/2000/svg" xmlns:xlink="http://www.w3.org/1999/xlink" viewBox="0 0 100 60" xml:space="preserve"><linearGradient id="a" gradientUnits="userSpaceOnUse" x1="-299.191" y1="-267.231" x2="-208.592" y2="-205.991" gradientTransform="translate(307.491 268.873)"><stop offset="0" style="stop-color:#b4b4b4"/><stop offset=".362" style="stop-color:#fff"/><stop offset=".449" style="stop-color:#e8e8e8"/><stop offset=".563" style="stop-color:#d2d1d1"/><stop offset=".686" style="stop-color:#c1c1c1"/><stop offset=".823" style="stop-color:#b8b7b7"/><stop offset="1" style="stop-color:#b4b4b4"/></linearGradient><path fill="url(#a)" d="M90.1 60H9.9C4.5 60 0 55.6 0 50.1V10C0 4.5 4.4 0 9.9 0h80.2c5.5 0 9.9 4.4 9.9 9.9V50c0 5.5-4.4 10-9.9 10z"/><defs><path id="b" d="M90.1 60H9.9C4.5 60 0 55.6 0 50.1V10C0 4.5 4.4 0 9.9 0h80.2c5.5 0 9.9 4.4 9.9 9.9V50c0 5.5-4.4 10-9.9 10z"/></defs><clipPath id="c"><use xlink:href="#b" overflow="visible"/></clipPath><g opacity=".55" clip-path="url(#c)" fill="#858584"><path d="M-3.2 15.4c.1 0 .1.1 0 0zM-.9 16c.2-.1 0 0 0 0zM1.9 18.4c.1-.2.1-.2 0 0zM-4.4 17.4zM-3.2 16.4c-.1-.1-.1-.2-.4 0 .3.1.4 0 .4 0zM-.7 15.3c-.1.1-.4.2-.5.4.2-.1.3-.2.5-.4zM-3.4 16.5c-.2 0-.2.1-.2-.1 0 0-.1.2-.2.2 0-.1 0-.1-.1-.2 0 .2 0 .2-.1.3-.3-.1-.4-.1-.4.4.1 0 0-.1 0-.1s.1-.1.1 0 0 0 .1 0l-.2.2c.2-.1.4-.4.4-.4.1 0 .1 0 .3.1.1-.1-.1-.1-.1-.2h.3c.1 0 .1-.1.1-.2zM-.1 15.8s.2 0 0 0zM-.5 15.3c-.2 0 0 0 0 0zM-1.1 15.5s-.3 0 0 0zM-4.6 17.5c.2-.2.2-.2 0 0zM-.5 14.9c-.1 0-.1 0 0 0zM-.9 14.8c0 .2 0 .2 0 0zM-.7 15c0 .1.1.1 0 0zM-1 15.3s.2-.1.2-.2c-.2.1-.1.2-.2.2zM-3.1 16.1c-.1 0-.1 0 0 0zM-7.7 18.1s.1 0 0 0zM-8 18.4c.2 0 .1 0 0 0zM-7.5 18c.1.1.1 0 0 0zM-8 18.1c-.3-.3-.5-.2-.7.1.2.1.5 0 .7-.1zM-9 13.2s0 .4 0 0zM-8.9 18.5c.1 0 .2 0 0 0zM-5.2 17.9c.1-.1.1-.1 0 0zM-7.1 17.9c.1.2 0 .1 0 0zM-6.6 18.1c-.1.2-.1 0 0 0zM-5.4 17.3c.1 0 .1 0 0 0zM-6.9 18.1s-.3.2-.1.1c.2-.1.1-.2.1-.1zM-6.7 18.2c.1 0 .1 0 0 0zM-6.8 17.9c-.1 0-.1 0 0 0zM-6.9 17.9c-.1 0-.1.1 0 0zM2.1 19.5c.1.2 0 .1 0 0zM2.3 18.2zM2.5 18.7s-.1-.1-.1-.2c-.1.2-.1.3-.2.6.1 0 .1-.1.3-.4zM2.4 19.3c-.1 0-.1 0 0 0zM2.2 19.7c.1.1.1.1 0 0zM2.2 19.6c0 .1 0 .1 0 0zM2.2 20s.1-.1 0-.2c-.1 0 0 .1 0 .2zM2.4 19.2s-.2-.1 0 0zM-5.7 15.4c0 .1 0 .1 0 0zM2.4 19.8c-.1 0-.1 0 0 0zM-5.8 15.5c0-.4 0 .1 0 0zM-4.2 11.6c-.1-.1-.2-.2 0 0zM-2.3 14.8c-.1.2-.1.1 0 0zM2.6 20c.1-.3.1-.6-.1-1-.1.4-.1.4-.2.7.1.1.1 0 .2.1-.1.2 0 .1.1.2zM2.1 19.2c-.1 0 0 0 0 0zM2.9 19.6c.1 0 .2-.1 0 .1.1-.2.2-.2.2-.4-.2.1-.1.2-.2.3zM2.8 20c.1 0 .1 0 0 0zM2.9 19.2c0-.2 0-.2 0 0zM2.2 17.5c-.1.1 0 0 0 0zM2.8 18.7c0 .4 0 .1 0 0zM2.8 19.8s.1 0 0 0zM2.6 17.6c-.1.4-.1.6-.2.9.2-.3.2-.2.3-.6 0 .1.1.3 0 .3.1-.4 0-.4-.1-.6zM2.8 19.1c.1 0-.2 0 0 0zM2.7 18.5c0 .1-.2 0-.2.4.2-.1 0-.1.2-.2.2.1 0-.1 0-.2zM2.9 19.2c-.1 0-.1 0 0 0zM2.8 19.6c.1.2 0 .1 0 0zM2.1 19c.1-.3.2-.5.1-.8l-.1.1v.4c-.1 0-.1.1 0 .3z"/><path d="M2 17.8c0 .2-.1.3.1.4.1 0 0-.2 0-.3.1.1.1.3.2.3 0-.2 0-.2-.1-.4l.2.2s0-.1.1-.1c-.2-.2-.2-.1-.4-.2-.1 0-.1.1-.1.1zM2.8 19c-.1 0-.2 0 0 0zM-9 13.1c-.1 0 0 0 0 0zM-7.3 14.1c.3 0 .5.1.4-.3-.1 0-.3 0-.5.1 0 0 .1.1.1.2zM-5.1 11.8s0 .2.3 0c-.3-.3-.3 0-.3 0zM-7.2 11c.1.1.4.1.3.4.1 0 .4-.1.5-.1-.2-.4-.4-.6-.6-.8-.4.2-.2.3-.2.5zM-5.3 12.1s.2 0 .1-.3c-.4.2-.1.3-.1.3zM-5.3 9.9c-.2 0-.1 0 0 0zM63.7 49.9c0-.2 0-.2 0 0zM63.4 49.7c0-.1 0-.2 0 0zM63.1 49.7c0-.1 0-.1 0 0zM63 49.3c0 .1-.2.1 0 .2.1-.1 0-.1 0-.2zM64.2 48.7c0-.1 0 0 0 0zM67.6 46.9s.1.1 0 0zM64.2 48.5c-.2.1 0 0 0 0zM82 42.2s-.1.1 0 0zM81.7 42.1s.2.2 0 0zM81.8 42.3c.2.1.1 0 0 0zM82 42.4c0 .2 0 0 0 0zM82.1 42.6s-.1.2 0 0zM81.5 40.8c.1-.3 0 0 0 .2.1 0 0-.1 0-.2zM81.5 41.2c.1.2 0 .1 0 0zM81.5 40.6c0-.2.1-.3.1-.5-.1.2 0 .4-.1.5zM81.6 41.8zM81.3 41c.2 0 .1 0 0 0zM101.2 39.9c-.1 0-.1-.1 0 0zM101 40.1c-.1.1-.2.2 0 0zM101.3 39.4c0 .1 0 .1 0 0zM70 8.8c-.1-.1-.1-.1 0 0zM70.3 8.9c-.2-.1-.1 0 0 0zM96.3 5.5c-.1.1-.1.1 0 0zM68.4 7.3c0-.1 0-.1 0 0zM103.4 17.8s.2.1.2 0c-.1-.1-.2-.1-.4-.2 0 .2.2.2.2.2zM71.8 5.6c.2.1 0 0 0 0zM71.1 5.5c.1-.1.2 0 .2-.3-.2 0-.3.4-.2.3zM71.2 5.8s0 .1 0 0zM69.9 8.5c.1-.2.1-.2 0 0zM71.7 5.5s.2 0 0 0zM70.9 11.9c-.1 0 0 0 0 0zM69.1 2.2c-.2.3-.2.5-.3.8 0 0 .1 0 .1.1 0 0 3 .5 1.5-.3 0 0 .2.1.2 0-.1-.4-.4-.7-.9-.7v.6c.1-.6-.1-.8-.6-.5zM68.4 2.9s.4 0 0 0c.6-.1.2-.5-.4-.3.1.1.2.2.4.3zM69.8 4.9c-.1.1-.1.1 0 0zM70.1 7.9c-.1 0-.2-.1-.3 0 .2.2.2.1.3 0zM69.8 8.5c0-.1 0-.2 0 0zM69.7 9s-.3-.1 0 0zM69.6 8.5s-.1.1 0 0zM69.7 8.1c-.3.1-.1.1 0 0zM68.1 8.5c0 .2-.1.2 0 0zM69 8.9c.1 0 .2 0 0 0zM69.3 8.9c0-.1.1.1 0 0zM68.2 7.4c-.1-.1-.2-.2 0 0zM69.5 5.6c-.3-.1-.2-.1 0 0zM80.7 6.3c.1-.1.1-.2 0 0zM93.9 6.7c.1.2 0-.4 0 0zM94 6.6c-.1-.2-.1-.2 0 0zM93.8 6.6c-.1-.1-.1-.1 0 0zM95.5 5.6c.7.1.3-.4 0 0zM94 6.5c0-.2 0-.1 0 0zM85.5 2.7c.4.3 1.7.2 1.1-.3-.2-.2-1 .1-1.2 0-.1.1 0 .2.1.3zM92.9 5.3s-.1-.1 0 0zM93.2 5.4c-.1-.1 0-.1 0 0zM92.6 5.4c0-.1 0-.1 0 0zM70.8 12c0-.1.1-.2-.1-.3 0 .1.1.2.1.3zM66.4 13.5c-.1-.1-.1-.1 0 0zM67.8 15.2s-.1 0 0 .1c.3-.1 0-.1 0-.1zM62.7 14.6c.1 0 .1 0 0 0zM57.7 17.1c-.1.1-.1.3 0 0zM55.9 20.2c-.2-.1 0 0 0 0zM60.5 4.6c.1.1.1.2 0 0zM59.6 16.1c-.1-.1 0-.1 0 0zM73.1 3.5c.2-.1.2 0 .3-.1-.2-.1-.2 0-.3.1zM73.9 4.3s.1 0 .1-.2c-.3 0-.1.1-.1.2zM71.6 6.2c.1 0 .2.1.3-.1V6c-.1.1-.4.3-.3.2zM77.1 6.8c.9-.2-.4-.6 0 0zM79.8 7.2c.3 0 0 0 0 0zM70.7 11.6c-.1-.1-.1-.1 0 0zM71.5 5.7c0 .2 0 .1 0 0zM85.1 5.2c.3-.1.7-.2 1-.2-.5-.8-1.2-.4-1 .2zM73 3.5v-.2c-.1.1 0 .1 0 .2zM71.1 2.8c.1.2.1.3.3.5-.1.3-.1.7.2 1 .1 0 1-.8 1-.9 0-.4-.9-.6-1-.7v.2c-.1-.2-.2-.2-.4-.4l.1.2c-.2-.1-.2-.1-.2.1zM84.6 1.1c0-.1.2-.3 0 0s0-.1 0 0zM84 2.5c.1.9 1.1.8.9 0-.4-.1-.8-.1-.9 0zM85.8 7.2c0-.1.2 0 .1-.2-.3.1-.1.2-.1.2zM82.1 3.3c.1.1.2.3.3.4-.1-.4-.2-.5-.3-.4zM83.5 4.9l-.2-.1c.1.1.2.2.4.2.1 0-.1-.1-.2-.1zM84.9 4.5c-.5-.3-.2 0 0 0z"/><path d="M82.5 3.1c.1.1.1.3.4.5 0 .1-.1 0-.2.1.4.3 1.4.8 1.1.1.1 0 .2.1.2.2.3-.3.5-.4.8-.5-1 .1-.7-1-1.5-1l.2.1c0 .1-.2.1 0 .5-.4-.3-1.3-1-1 0zM59.4 2.9c.1-.1.2 0 .3-.1-.3-.2-.3 0-.3.1zM68.5 7.7c-.1 0-.1-.2-.2 0 .1.2 0 .1.1.2.2 0 0-.1.1-.2zM59.7 4.2s-.1-.1 0 0zM59.6 4.5c0-.2 0-.2 0 0zM60 3.8c0 .2 0 .1 0 0zM59.8 3.2s-.1.1.1.2c.2-.2 0-.1-.1-.2zM59.9 3.5s0 .2.1 0c0-.2 0 0-.1 0zM59.5 4.3c0-.1.1-.2 0 0z"/><path d="M59.9 3.4c-.1 0-.3-.1-.5-.1.3.2.5.1.5.1zM59.6 3.9s.3-.1-.1-.1c0 .1.1.2.1.1zM59.3 4.4c.1.2.1.1 0 0zM60.7 3.4c-.5.2-.3.8.3.5-.1-.3 0-.6-.3-.5zM59.4 4.2c-.2-.1 0-.1 0 0zM59.2 4.1c0 .1.1.3 0 0zM59.5 3.8c-.1 0-.2-.1-.4 0 .1.2.2 0 .4 0zM59.1 4.3c-.1-.2-.1-.2 0 0zM58.1 3.5c.1-.1.1-.1 0 0zM58.5 4.6c-.1.1-.2-.1-.2.1.3.2.1 0 .2-.1zM59.8 2.9c0-.2 0-.2 0 0zM59.1 4.7c0-.1.2-.3-.1-.2 0 .1.1.1.1.2zM60.7 4.7c-.1-.1.1-.4-.2-.2 0 .1.2.1.2.2zM57.8 4.3c-.1 0-.2-.1-.3-.1v.1s.2.1.3.1c-.2.2-.1.1-.1.4.1 0 .1-.1.2-.1s.1.1.1.2c.2-.2.2-.1.1-.5.1 0 .2 0 .3-.1 0 0-.1-.1-.1-.2.3-.2.4-.3 0-.2 0-.1.1-.2.1-.3 0 0-.1.2-.2.2v-.1c-.1.3-.2.3-.4.6z"/><path d="M57 4.5c.1 0 .2.1.3-.1 0 .1.1.1.1.2-.2-.5-.1-.5.4-.4h.1c-.4-.4-.9-.2-.9.3zM58.4 4.9c.1 0 .1.2.4 0 0-.1-.1-.2-.2-.3 0 .2 0 .3-.2.3zM59.6 2.6c0-.1 0-.1 0 0zM59.5 2.4s.2 0 .2-.1l-.1-.1c-.3.1-.1.2-.1.2zM59.6 3.1c0 .3 0 0 0 0zM59.3 3.3c.1-.1.3-.2.4-.4-.2 0-.2 0-.4.1 0 0 .2 0 .1.1-.3.1-.1.1-.1.2zM60.9 3.1c.1.1.1.2.3.3.1-.1.2-.3.3-.4-.3-.4-.5-.5-.6.1zM59 3.5c.2.1.5.2.8.2-.2-.2-.5-.3-.8-.2zM59.8 4.5h.3c-.2-.5-.2-.2-.3 0zM67.1 1.5c0-.1.2-.1.2-.2-.3 0-.2.2-.2.2zM65 4.1c-.2-.2.3.3 0 0zM66 10.3c.1.1-.1.2.1.2.4-.2.3-.7-.1-.2zM60.6 2.4s.3 0 .1-.1c-.3.1-.1.1-.1.1zM62.1 8.5c.2-.3 0 0 0 0zM102.7 17.7c.1.1.2.1.3.1l-.4-.4s-.3.1-.2.1c.1.1.2.1.3.2zM61.6 10.3l-.2.2h.5s-.5.1-.3.3c.3 0 .5-.1.5-.1.4 0 .4-.1.2-.4.1 0 .2 0 .2.1 0-.1-.1-.3-.1-.4.1 0 .1.2.2.2 0-.1-.1-.3-.1-.5.2 0 .2 0 .1-.2.3 0 .4-.1.4-.4.3-.3 2-1.4 1.4-1.9-.4-.3-1.2.7-1.4.9-.4 0-.3-.1-.5.2 0 0 .1-.1 0-.1-.2.3-.6.6-.4.9-.3.1-.3.2-.5.1.3.3 0 .3.4.4-.1 0-.2.1-.3.1 0 .2.2.1.2.1-.1.1-.2.1-.2.1h.2s-.1 0-.1.1c.2 0 .2.1.3.2-.5-.2-.4.1-.5.1zM64.7 2.6c.1-.1.2 0 .3-.1-.3-.1-.2.1-.3.1zM68.8 10.3s0-.3-.1-.4c-.3.3 0 .2.1.4zM68.4 10.8l.3-.3c-.4 0-.3.2-.3.3zM67.9 1.9c0 .1.1.3 0 .5 1.4.3 1.5-.8.2-1.4-.2.2-.3.6-.2.9zM67.8 10.1c.1 0-.3-.3 0 0zM67.5 10.2s-.1-.2-.2.1c.1.1.1 0 .1.1 0 0 0-.1.1-.2zM67.4 9.8s.1 0 .1-.1c-.1.1-.2.3-.1.1zM64 13.7l.2.2c-.1-.2-.2-.2-.2-.2zM63.1 14.2s.1.2 0 0zM60.5 3.4c.2-.4.1-.2 0 0zM63.6 14.2s.4.1 0 0zM63 14.2c-.1 0-.1 0 0 0zM62.8 14.6c.1 0 .2 0 0 0zM61.8 14.6s.3 0 0 0zM62 12.6c-.1 0-.1-.2-.3 0 .2.2.2 0 .3 0z"/><path d="M63.2 12.9s-.9-1.5-1-1.7c.3-.2.1-.2.1-.2l.1-.1c-.5-.2-.9-.1-.8.3-.1.1-.2.1-.2.3.1 0 .1 0 .2-.1.1.1-.1.1-.1.1.1 0 .1-.1.1-.1 0 .2-.1.1.1.2-.6.2-.2 1.1.1.4v.3c.1 0 0-.1.1-.1.1.2.1.2.3.3-.1.1-.1.2-.2.3.3.1.4.2.6.2 0-.2 0 0-.1-.2.3.1.2.1.5.2l-.1-.1c.1 0 .2.1.3.1v-.1zM64.3 13.5c-.1-.3-.3-.5-.6-.6 0 .1.1.1 0 .2 0 .1-.1-.1-.1 0 .3.3.4.4.7.4zM59.4 4.2c-.1.1-.2.2 0 0zM60 4c0 .2.1.4.3.5 0 0 .2-.3.2-.4-.2 0-.4 0-.5-.1zM61.5 14.2c-.8-.7-.5.9 0 0zM63.9 13.7c-.1-.2 0 0 0 0zM64.2 14s0-.2 0 0zM63.3 14.2s-.1 0 0 0zM100.2 23c.1 0 0 0 0 0zM100.2 23.3c0-.1 0-.1 0 0zM100.3 22.4c-.1 0-.1 0 0 0zM100.2 21.1c.1.1.1.1 0 0zM100.5 15.2c.1-.3.4-.2 0-.5l-.3.3s.1.3.1.4c.4.2.2-.1.2-.2zM99 12.8c.1.1.1.2 0 0zM98.7 25.7c.1 0 .2-.1 0 0zM100.2 23.4c0-.1 0-.1 0 0zM100.3 22.5c.1.2 0-.1 0 0zM99.5 24.5c0-.1.1-.3.2-.4-.2.2-.2.5-.2.4zM99.1 13c.1.1 0 0 0 0zM100.7 21.2c-.1-.1-.1-.1 0 0zM100.4 22.3c-.1-.1-.1 0 0 0zM100.1 23.7c-.1-.3 0 .1 0 0zM100.4 21.5c0 .1-.1.2-.1.3h.1c.1-.3 0-.3 0-.6.1.1.1.2 0 .3zM100.1 23.5zM98.4 25.6c0-.1.3-.2 0-.2 0 .1-.1.3-.1.4.2.2.1-.3.1-.2zM96.1 15.9c0-.1-.3 0 0 0zM100.4 22.1c-.2-.2 0 .1 0 0zM92.8 19.4c0 .1-.2.1-.1.2.1 0 0-.1.1-.2zM98.7 25.3c.1 0 .4-.5.5-.7-.3.2-.5.3-.5.7zM95.5 21.5c.6 1 .7 2.3 1.3 3.3v-.5c.2.2.2 0 .4.3 0-.1-1.4-2.9-.1-1.6-.7-.9-1.2-1.8-1.6-2.7l.2.2c-.2-.3-.4-.6-.7-.9 0 .2 0 0-.2.1.4.3.2.3.4.5-.5.1 0 1 .3 1.3zM93.1 19.4c-.1.1-.3-.1-.2.3.2-.1.1-.1.2-.3.1.1 0 .1 0 0zM93.1 19.8c.1.1 0 0 0 0zM93.1 19.9c.1.2.1.1 0 0zM93.3 19.8c-.1 0-.2.1 0 0zM91 35.3c-.1-.1 0 0 0 0zM90.2 36.2s-.1-.1 0 0zM88 37.2c-.2 0-.1 0 0 0zM91.7 33.2c-.3 0 0 0 0 0zM87.4 38.2c.3.1.9-.2.7-.6-.2-.3-.9.2-.7.6zM91.2 32.5s0 .2 0 0zM91.4 35.7c-.2.4-.1.8.2 1.1h.1c.1-.4.4-2.2-.3-1.1zM52.2 7.1c-.2-.1-.2-.2-.5.1l.2.2c.2 0 .2-.1.3-.3zM54.2 5.3c.1-.1.3-.1.3-.3-.2.1-.3.3-.3.3z"/><path d="M49.3 6.4c.1 0 .1.3.2 0h.1c0 .2 0 .2.1.4-.1 0-.1-.1-.2-.1.2.2.2.3.4.4 0 .2 0 .1.1.4.3-.3.4 0 .3-.5.1 0 .1 0 .1.1.1 0 0-.2.1-.2.1.1.1.3.1.4l.2-.3s.1.3 0 .3h.2c-.6.5-1.2 1.1 0 .6 0 0-.1.1 0 .1-.1 0-.3.1-.5.1l.3.1h-.5c.1.4.3.6.7.6 0 .2 0 .2.1.5.6-.4.2-2.2 1-2.1-.2-.2-.7-.6-.8-1 0 .1-.1.3-.1.4 0-.4-.1-.6-.4-.7-.2.4-.1.8.1 1.2-.1-.1-.3-.2-.3-.2 0-.3-.1-.4-.2-.6-.1.2-.1.3-.1.6-.2-.2-.1-.3-.1-.4 0 0-.2.1-.2 0-.2-.4-.1-.5 0-.6-.1 0-.4-.1-.5 0-.1 0 .1.2.1.2-.1 0-.1-.1-.2-.2-.1.2-.1.3-.1.5zM51.6 6.5c.1.1.2.2 0 0zM51 5.4c0-.1 0-.2 0 0z"/><path d="M52.7 7.9c0-.2-.1-.3-.3-.7-.2.1-.4.2-.5.3 0 .2.1.4.1.6.2-.1.4-.1.5-.3v.4c.1 0 .1-.1.2-.3zM51.8 10.7c.1.3.1.2 0 0zM51 5.5c0 .4.4.5.9.3-.1.1-.2.1-.3.1l.2.1h-.4c1.1.9 2.5-.5 1.1-.9-.1.1 0 .1-.1 0 0 .1-.1.2-.1.2-.1-.1-.1 0-.1 0-.1 0-.2-.2-.2-.3v.6c-.1-.1-.1-.2-.2-.3-.3-.1-.3 0-.5-.3v.4c-.1 0-.1-.1-.1-.1v.3c-.2-.2-.3-.1-.2-.1zM53.3 5.4c-.1-.1-.1-.2 0 0zM53.2 7c0-.1 0-.4 0 0zM53.6 6.7c.1 0 .2 0 .3-.1-.2 0-.5.1-.3.1zM51.5 4.9s-.1-.4 0 0zM49.5 7.4s0-.2-.2-.5c0 .2.1.3.2.5zM96.7 29.3c0-.1.1-.1 0-.3-.1.2 0 .1 0 .3zM95.9 30.9c0 .2 0 .2 0 0zM93.9 31.8s0-.1 0 0zM94.9 32.8c-.2-.1 0 .1 0 0zM95.6 31.4c.8-.4-1.3-.2-.2.4-.1-.3.1-.3.2-.4zM95.7 31c-.1 0-.1 0 0 0zM94.8 33.1c-.1-.2-.1-.2 0 0zM96.3 26.8c.1.1.2.1 0 0zM93.9 34.9c.1-.1.2-.1.1-.3 0 .1 0 .2-.1.3zM94 31.7c-.1 0 0 0 0 0z"/><path d="M94.4 31.3c-.1.1-.2.2-.4.3l.1.2v-.1.2c.1-.1.1 0 .2 0 0-.2-.1 0-.1-.2.2.4.1.7.3 1v-.3c0 .1.1.2.1.4.3-.4.4-1.2-.2-1.3.2-.1.2-.1.4-.1.2-.3.6-.3 1.1-.5-.1.9.7.4.5-.2.1.2 0 0 .2.1l-.1.1c.1 0 .3-.1.5 0-.1.1 0-.2.1-.2.1.1 0 .1.1.2.1-.2.2-.4.3-.5v.4c.6-.5-.3-1.5.2-1.8 0-.7-.3-1.1-.5-1.7H97v.2c.1.1.1-.1.2 0-.1 0-.2.1-.1.2-.1-.1 0-.1-.1-.2h-.1c-.1.2-.1.5-.1.7.9.5-.6 2.2-.4 1.4-.3.3-.4.8-.6 1-.5.2-1.1.1-1.4.7zM93.9 31.7zM93.8 31.8c.1 0 .1 0 0 0zM95 30.2s0 .1 0 0zM98.2 25.6c-.4.4-1-.3-1.5-.6.1.4.5 1.3-.1 1.2-.1.3-.1.8.2 1.1.1-.1.3-.2.4-.3-.2-.1-.4-.3-.5-.3.3-.2.8-.1 1.1.2 0-.6.4-.6.7-.9-.1 0-.1.1-.2.1 0-.2 0-.5-.1-.5z"/><path d="M95.1 30.2c0-.1-.1-.1 0 0zM93.8 31.9c.2.1 0 0 0 0zM94.3 32.1c0 .1 0 0 0 0zM94.3 32c0 .1 0 .2 0 0zM94.4 32s-.1 0 0 0zM92.8 35.8c0-.1.1-.1 0 0zM93.2 35.6c-.1 0-.1 0 0 0zM92.7 35.8c0-.1 0 0 0 0zM94.3 34.2c.1.1 0 0 0 0zM94.6 33.9c-.1.1-.2 0-.2.1.1.1 0-.1.2-.1zM93 31.7c-.1-.1-.3-.2 0 0zM93.8 31.3c.1-.1.1-.1 0 0zM93.6 30.9c-.1-.1-.1 0 0 0zM92.7 31.2c0-.1 0-.1 0 0zM93.9 31c-.1.2-.1.2 0 0zM93.3 30.9c0 .1 0 .1 0 0zM104.1 48.6s.1.2 0 0zM103.1 45.8c-.1-.1-.2-.2 0 0zM102.4 47.4c-.1-.2-.1-.2 0 0zM102 47.2c.1 0 .1 0 0 0zM101.7 46.9c-.1.1-.1.1 0 0zM102.1 45.9c-.1 0-.2-.1-.2.1.2.1.3-.1.2-.1zM104 47.2c.1-1-.4.4-.8-.1-.1 0-.5.2-.6.2.4.4 1 .3 1.4-.1zM104.6 49.5s.1 0 0 0zM104.4 49.5c-.3 0 0 0 0 0zM104.3 46.9c0-.4-.4-.6-.8-.8.3.2.8.7.8.8zM103.2 48.8c0-.1-.1-.2 0 0zM100.7 48.2c0 .1.1.1 0 0zM100.8 48.2c-.1-.1 0 0 0 0zM103.4 48.7c0 .1-.1.2 0 0zM101.1 48c0 .1 0 .1 0 0zM103.5 48.5c0-.3 0-.1 0 0zM101.1 48.1c0-.1 0 0 0 0z"/><path d="M102.8 48.6c-.4-.2-.6-.5-.8-.9.7-.3-1.5-1.3-2.2-1.5-.5-.2-1.1-.3-1.4-.2-.5.1-.6.8-1 .2 0 0 0 .2-.1.1 0-.8-.9-1.3-1.3-.5.3.2.7.4 1.1.3v.1c-.2 0-.4.1-.7.1.3.4.5.6.7 0 .1.4 0 .2.4.4 0 .2.7.3 1.1.4 0 .2-.1 0 .1.1 0 .2 0 .3.3.6 0 0-.1-.1-.1 0 .1.1.2 0 .3.1H99c.1.2.1.1 0 .3.1 0 .4-.1.5-.1.1.7 2 .8.6-.1.3.3.3.3.8.3 0-.1-.2-.1-.2-.2l.2.1c0-.1 0-.2-.1-.3.2.1.2.1.3.1 0 0-.1-.1 0-.2.4.2.6.5 1 .7.4.3 1 .4 1.3.5l-.1-.1c0-.1.1.1.2 0-.2 0-.3-.1-.4-.1l.2-.1c-.5.2-.5.1-.5-.1z"/><path d="M103.5 48.9s-.2-.1 0 0c.1 0 0 0 0 0zM101.2 48.1c.1 0 0 0 0 0zM100.6 48.4s.1 0 0 0zM101 48.1zM100.7 48.4zM100.7 48.5c-.1-.1-.1-.1 0 0zM100.8 48.3c-.1.1-.1.1 0 0zM103.2 47c.1.1.1.1 0 0zM100.8 48.1c.1.1.1.1 0 0zM103.3 46.2c-.2 0-.1 0 0 0zM90.9 41.9c0 .4.7-.5.6-.9 0 .3-.3.5-.6.9zM93.4 41.2c0-.1 0 0 0 0zM93.4 40.9c.1 0 .1 0 0 0zM93.3 41.5c.1 0 .2.2.3-.1-.2 0-.2.1-.3.1zM92.4 40.1c.1.1.1.2 0 0zM93.6 41.8c-.1 0 0 0 0 0zM92.9 40.3s.1.2 0 0z"/><path d="M92.1 38.3c-.6-.2-.4.6-.6.8 0 .3.1.5.3.7 0-.1 0-.1.1-.1v.4c.2-.1.4 0 .8.2 0-.1-.1-.2-.1-.3.3.2.5.4.6.6 0-.1 0-.1.1-.2-.1-.2-.1-.3-.2-.3-.2-.2-.1-.1-.3 0-.3-.1-1-.4-.5-1v.1c.1-.4.1-.7 0-1 0 0-.1 0-.2.1zM93.8 41.4c0 .1 0 .2 0 0zM93.7 41.2c-.1-.1 0-.3-.3-.2.1.2.1.3.3.5.1-.1 0-.1 0-.3zM91.7 41.2c0 .1 0 .1 0 0zM92.7 41.6c.1.1.2 0 .3.2 0-.2.1-.6.1-.7-.2.1-.3.3-.4.5zM92.6 42.7c0 .1.1.2 0 0zM92.8 41.3s-.2-.1 0 0zM93.3 41c-.1.2-.2.4-.2.6.1-.2.1-.4.2-.6zM91.6 40.6c.1 0 .1.2.2.1 0-.1-.1-.1-.2-.1z"/><path d="M92.3 40.3c-.2-.1-.3-.2-.5-.1.1.2.3.4.4.5.1-.2.1-.3.1-.4zM92.4 39.5c0 .1-.1.1 0 .2.1-.1 0-.2 0-.2zM92.2 38c0 .1.1 0 0 0zM93.1 41.8c.1 0 .1 0 0 0zM92.4 39.9c.1-.1.1-.1 0 0zM93.3 40.1c0-.2 0-.2 0 0zM93.4 40.5c0 .1.2.3.2.4.1 0 .2.1.3.1h.1c-.1-.4-.3-.4-.6-.5zM90.8 42.1s-.1 0 0 0zM92.1 37.9c-.1-.2 0-.1 0 0zM94 41.1zM92 38.1c.1-.2 0 0 0 0zM93.9 41.4c.3.2-.1-.1 0 0zM93.8 41.8c-.2.2-.2.3-.6.5 0-.6-.6 0-.6.4.1-.1.1-.2.2-.3.2 0 .1.1.3.2 0 0-.1-.1 0-.1l.3.2c-.1.3 0 .4.4.4v.2c0-.2.2-.4.2-.7 0 .1.1.3.2.4.2-.5.1-1.1-.4-1.3.1 0 0 .1 0 .1zM92.5 40.4c0 .1-.2.2 0 .2.1 0 0-.2 0-.2zM94 41.6c.1 0 .1 0 0 0zM91.7 40.8c0-.1 0-.1 0 0zM93.9 41.2c.1 0 .1 0 0 0zM93.2 40.6s-.2-.2 0 0zM92.6 40.8s-.1.1-.1.5c.3-.1.3-.2.4-.5-.1.1-.2 0-.3 0zM92.9 40.7c.1 0 .2 0 .4.1-.3-.5-.2-.2-.4-.1zM92.8 40.6c-.1-.1-.2-.1 0 0zM90.6 42.2c.2.1.1.1 0 0zM94.2 41.5c-.2-.1-.1 0 0 0zM91.8 40c-.2 0-.1 0 0 0zM91.9 37.9c.1 0 .1 0 0 0zM90.8 42.2c0-.1 0-.1 0 0zM95.6 47.6s-.1 0 0 0zM94.9 46.7c0-.1 0-.1 0 0zM83.9 45.5c-.1 0-.1.1 0 0zM95.5 48.2s0-.1 0 0zM94.8 48.3c.1-.1 0 0 0 0zM85 44.5c.1.1.1.1 0 0zM85.5 45s.2 0-.1-.2c-.2.2.1.1.1.2zM82.8 44.2c.1.1.1.2 0 0zM83.4 44.5zM86 44.9c0-.2 0 0 0 0zM83.5 44.7s-.2.1.1.3c.1-.2-.1-.1-.1-.3zM85.2 44.7c.1.1.2.2 0 0zM94.8 46.4c.1-.1 0 0 0 0zM94.8 46.4zM94.8 45.9c.1-.1.3.1.1-.1-.3 0-.1.1-.1.1zM86.2 45.5c-.1 0-.1 0 0 0zM86.3 45.4c-.1-.1-.2-.1 0 0zM94.7 48.3c-.1 0 0 0 0 0zM95.4 47.7c0 .1 0 0 0 0zM92.1 47.9c-.1 0-.1 0 0 0zM92.1 47.5c-.1 0-.2 0 0 0zM92.5 47.1c.1.3.1 0 0 0zM92.5 45.4c.1.1.1.1 0 0zM95.6 48.2c-.2.1-.1.1 0 0zM93.1 47.2v-.3c0 .1-.1.3-.2.4l.2-.1zM93 49c0 .2 0 0 0 0zM91.5 48.5s.2-.1 0 0zM91.6 48.5c.1 0 .1-.1 0 0zM92.7 47.2c.1-.1.2 0 .2-.2-.2.1-.1.1-.2.2zM86.8 44.2s0-.1 0 0zM97.4 47.7c-.1-.1-.1-.1 0 0zM97.4 47.3c-.1-.1-.1-.1 0 0zM86.2 44.8c0 .1-.2 0 0 .2v-.2zM86.8 43.9c0 .1 0 .1 0 0zM97.4 47.5c-.2 0-.2 0 0 0zM96.7 47.4c0 .1.2-.4 0 0zM92.6 45.4c-.1.1 0 0 0 0zM93.8 46c.1 0-.1-.1-.3 0 .1 0 .2-.1.3 0zM94.6 48c0 .1 0 0 0 0zM93.1 48.5c.2-.3.1-.1 0 0zM97.3 47.3v.2c.2-.1 0-.1 0-.2zM97.4 47.7s-.1 0 0 0zM92.6 48.5c.1-.1.3 0 .3-.2-.3.2-.9 0-1.2.3.3 0 .6 0 .9-.1zM91 43.7zM94.6 45.5c0 .1 0 .1 0 0zM91.1 43.7c-.1 0-.1 0 0 0zM97.2 47.4zM91 43.9c-.1 0 0 0 0 0zM97.2 47.5c.2.1 0 0 0 0zM94.1 46c.1.3 0 .1 0 0zM93.9 48.3s-.1 0 0 0zM94.1 48.1c.1 0 .2.1.3-.1-.2.1-.5.2-.3.1zM93.9 46h.3c-.1-.1-.3 0-.3 0zM97.1 47.7s.2.2 0-.1c.1 0 .1.1 0 .1zM94.6 45.4s-.1 0 0 0zM94.5 46.7c-.1-.3-.6-.3 0 0zM85.3 47.2s0 .2 0 0zM86.4 47.3c.8-.2-.3-1.3-.3-1.6-.1 0-.2 0-.4-.1 0 0 .2-.2.2-.1 0-.1-.2 0-.3 0 .1-.1.2-.1.3-.1-.3-.1-.1-.1-.5-.1l.2-.1c-.7-.4-1-.9-1.7-1.3-.6-.4-1.7-1.2-.9 0 .8 1.2 2 2.4 3 3.6v-.2c.3.2.3.1.4 0zM84 45.3c-.1-.1-.2-.1 0 0zM93.1 45.9c.1 0 .1 0 0 0zM84.6 46.4c-.1 0-.1.1 0 0zM83.9 45.6c0 .1-.1.2.2.3.1-.2-.1-.1-.2-.3zM91 44s0-.1 0 0zM84.2 46.1c.2.1.1 0 0 0zM84.4 46.2c.1.1.1.1 0 0zM93.3 45.9c-.1 0-.1-.1 0 0zM92.9 48.5c.1-.1.1-.1 0 0zM94.6 48.3c-.1 0-.1 0 0 0zM93 49.3s0-.1-.2 0c-.1.1.1-.1.2 0zM91.5 48.9c.2.1.3.2.6.1-.3-.3-.6-.4-.6-.1zM93.1 46c-.1-.1-.1 0 0 0zM88.6 48.3c.3 0 .7.1 1.1.2-.1-.8-2.9-1.4-3.3-.8.1.1.3.1.5.1.1.3 1.2.4 1.7.5zM93.1 45.8s.1-.1-.2-.1c.1.2.2.1.2.1zM86.4 47.7zM94.7 45.4c0 .1.1.3 0 0zM96.4 47.8c-.1.1 0 0 0 0zM97.6 45.8c0 .1-.1-.1 0 0zM95.9 48s.1 0 0 0zM96 48.3s-.2 0 0 0zM97.4 45.6c.1 0 .1 0 0 0zM96.4 47.9c-.1 0-.2-.1 0 0zM93.9 43.9c.2.2 0 0 0 0zM96.6 47.4c.2.1-.1-.2 0 0zM97.9 45.7c0 .1.1-.1-.2-.2l.2.2zM97.7 45.9c.2 0 .3.1.5 0h-.5zM96.1 45.6c-.1.1-.2.2 0 0zM95.4 45.3c.3.1-.2-.1 0 0zM95.2 44.9s-.1-.2-.4.1c0-.2 0-.3.1-.5-.3.4-.2.8.1 1.2v-.1c0-.1-.2-.3-.2-.5.1 0 .3.1.4 0-.3-.1-.1-.1 0-.2zM95.9 48c.1 0 .2 0 0 0zM93 48.3c0 .1 0 .1 0 0zM96.2 47.9c0 .1-.2.1-.1.3.2-.1.1-.2.1-.3zM96.1 45.4c.2 0-.1-.1-.3-.1.3.1.1 0 .3.1zM98.8 48.3c.1 0 .1 0 0 0zM95.8 45.6c.2 0 .2 0 0 0zM96 45.5c-.1.1 0 .1 0 0zM90.5 46.2c0-.1.1-.1 0-.2v-.1c.2-.1.1-.1.2-.3.1-.1.4-.6.5-.8.2.1.3 0 .4 0-.5-.3-.4-.6-.6-1h.2c-.1-.2-.2-.1-.1-.2h.3l.3-.3c-.2-.1-.5-.3-.5-.3s-.2-.2-.3-.4c-.1 0 .1.1-.1.2-.1 0 .1-.1-.1-.1-.2.3-.3.4-.5.7 0 0 .1.1.1 0l-.2.1c-.3 0-.9.7-1.1.9-.2.3-.9.1-1 .2-.3.4-.2.9.4.7-.1 0-.3.1-.4.1.4.3.3 1.3.9.7v.4c.4-.2.4-.1.7 0 0 0 .1-.1.3.2.4 0 .6-.3.6-.5zM90.5 48.4c-.1.1-.2 0-.3.1.3.2.2 0 .3-.1zM90.6 48.6c.4 0 .7-.1.9-.2v-.1H91l.2.1c-.4-.1-.5.1-.6.2zM90.5 46.7c-.3-.1 0 0 0 0zM90.5 46.6c0-.1-.1.2 0 0zM90.3 47.9c-.1.1-.1 0 0 0zM92.4 49.2c.1 0 .1 0 0 0zM92.2 43s.3.1 0 0zM94.4 43.8c0 .1 0-.2 0 0zM91.6 43.4c0 .1 0 .1 0 0zM94.5 43.7c-.2-.1 0-.1 0 0zM87.7 45.9c.2 0 .1 0 0 0zM88 45.4c-.3 0 0 0 0 0z"/><path d="M88.1 45.7c-.2-.1-.3-.1 0 0zM98.9 48.1c-.1 0-.2-.2-.5.2.1 0 .5-.1.5-.2z"/><path d="M88 45.8c.1-.2.1-.1 0 0zM95.1 47.9s-.1 0 0 0zM89.5 47.8c-.2 0-.2-.1-.4 0 .2.1.6 0 .4 0zM90.1 48.5c0-.1 0 0 0 0zM90.2 48.3c-.1 0-.2-.1-.4-.1.1.4.2.1.4.1zM90.1 47.8c.1.1-.3 0 0 0zM87 46.4s-.1 0 0 0zM86.8 46.2c-.1-.1-.1-.3-.2-.4-.1 0-.1 0-.2.2.2.1.3.3.5.4.1-.1 0-.1-.1-.2zM87.3 46.5c0-.1.1-.1.2-.1-.4-.2-.1-.1-.4 0 .2-.1.2 0 .2.1zM95.1 44.5c-.1-.2-.1-.1 0 0zM87.5 43.6c0 .1-.1.1 0 .2.2 0 0-.1 0-.2zM93.7 48.8c.3-.1.5-.2.8-.3-.6 0-1.3.2-1.4.7.3-.1.4-.2.6-.4zM95.1 46.6zM95.3 46.5c.2.1.4 0 .6.2-.2-.4-.8-.5-1.1-.1.2-.1.3-.1.5-.1zM95.2 48.3c-.1 0-.1 0 0 0zM93.6 45l.3-.3v-.1c-.6.5-2.3-.3-2 .9-.5.2-.4 1.7.2 1.7-.1-.4-.1-.9.2-1 0 .7.3.9.9.5-.5-.2-.3-.4-.7-.8.3-.1.7-.3.8-.5-.2 0-1.8.5-1.3-.2.2-.3 1.1 0 1.6-.2zM86.8 44.1c-.1-.1 0-.1 0 0zM86.6 44.1c-.1 0-.1.1 0 0zM92.1 42.9c0-.1 0-.1 0 0zM93.3 48.4s.2 0 0 0zM95.7 46c0-.1 0-.2 0 0zM95.1 46.6c-.1 0-.1 0 0 0zM93.5 48.4c.1 0 .2 0 .2-.1-.2 0-.2.1-.2.1zM91.9 43.3c0-.2 0 .1 0 0zM90.7 42.5c.1-.1-.1.1 0 0zM88.7 44.4c0-.1.1-.1 0 0zM84.4 43.2c.1.1.1.1 0 0zM88.7 44.3c0-.1 0-.1 0 0zM88.9 44.3c-.2-.1-.1 0 0 0zM90.7 42.6c.2-.1.1-.1 0 0z"/><path d="M88.7 44.3c.1.1.1.1 0 0zM85.8 41.5c0-.2 0-.2 0 0zM84.3 41.6s.1 0 0 0zM83.8 42.3c-.2-.1 0 0 0 0zM85.1 40.7c.2.1-.1 0 0 0zM84.4 41.8c-.1-.2-.1-.2 0 0zM84 42.5c0-.1 0-.2 0 0zM84.2 42.7c.1.1 0 .1 0 0zM81.5 38.2c.2.1.2 0 0 0z"/><path d="M82.6 39.1c.1-.1.2 0 .1-.1.1-.1.2 0 .2-.3.1.1.4.4.4.3 0 .4.2.8.3 1.2 0 0 .1-.1 0-.1.3.5.2 1 .2 1.5v-.2c-.1.3-.1.5-.1.8.1 0 0-.1.1-.1.3.5 1.5 3.1 2.1 2.5l.1.1c-.5-1.1-.7-1.7-1.6-2.3.1-.2 0-.2 0-.5-.1 0-.2-.2-.4-.2-.2-.5.2-1.1.1-1.6.4.2.2-.1.3.3.5 0 .8.2.9.7.1 0 .1-.1.2-.1v.3c.3 0 .3.1.7.1-.2.3-.1.4-.3.6.5-.2.8-.5.6-.6.1 0 .1 0 0-.1h.1c.5.2.9-.6.9-.8-.2-1.1-.9-1.6-1.7-2.3 0-.3.1-.6.3-.9.3-.1.5-.2.7-.4.1 0 .4.1.5.2v.5l.2-.1c-.1-.2-.1-.2-.1-.3.3.1.9-.1 1-.6.2.2.2.1.2.3.6-.3 1-.7 1.5-.9l-.2-.1c.2-.1.2 0 .3 0 0-.2-.1-.1.1-.2l-.1-.1s.2 0 .1.1c0 0 0-.1-.1-.2h.1c.1.1.1.1.1.2 0-.2-.1-.3-.1-.3 0-.1.2-.1.2-.2-.2-.1-.1 0-.2-.1 0 0 .1 0 0-.1h.1c.1 0 .1 0 .3-.1 0-.1-.2-.1-.1-.1 0-.1.1-.1.1-.3.1 0 .3-.1.3-.1 0-.1 0-.1.1-.1l-.1-.1c.1-.2.2-.1 0-.2.1-.1.2-.1.3-.1l-.1-.2c-.1.1-.1.1-.3.1.1 0 .2-.1.3-.2-.3-.1-.5-.2-.8-.1 1.1-.4 0-1.2-.7-.8.4-.3.8 0 1.3 0-.3-.3-1-.9-1.1-1.2-.2-.6.1-.7.1-1.1.3 0 .4-.1.7-.1V30c-.7-.1-2.1.5-2.1-.6 0 .2.9-1.1 1-1.1.7-.4.2.6.6.7-.1.2-.1.2-.3.3.1 0 .1 0 .1.1.3-.3.6-.6 1.1-.7.2 0 .2.1.5.1 0 .4 0 .3.1.5-.1.2-.1.2-.3.4.2 0 .1-.1.1.2.3-.3.6-.1.8.3-.3 0 0 0-.3.1.5.3.2.7.4 1.1.3-.3.8-.2.9-.5.3-.7-.8-1.2-1-1.8-.2-.6.5-1.7.9-2.4 1.3 1.3 1.9-3.4 1.8-4.2-.8-.8.1-2.4-1.8-2.5.1.2 0 .4 0 .5v-.3c-.1.2 0 .2-.3.3 0-.1.1-.2.1-.3 0 0-.3.1-.4.2 0-.2-.2-.4-.2-.6-1.2.4 0-1.4.2-1.9.1-.4.5-2.5 1.4-1.6.2-.4.5-.3.9-.3-.1-.1-.1-.1-.1-.2 0 .1 0 .1.1 0 .2-.3.7-.1 1.2-.1-.1.1-.3.2-.3.2.4.1.2 0 .4-.1.3 0 .2-.1.5-.1.1-.1.1-.2.3-.2-.2-.1-.1-.2-.5-.1-.1-.6.1-2.5 1-1.9.1-.1.1-.2.2-.3.1.3.1.4.1.7.1.1 0-.1.2.1 0 0 .1-.1.2-.1 0 .1 0 .2.1.3.2-.4.1-.9.5-.9-.3-.4-.6-1.2.3-.9-.1 0-.1.1 0 .1-.4.3.1 1.1.3 1.3-.5.2-.4 1.6-.4 2.3-.3.1-.2.2-.5.3.5.4-.2.8.2 1.3.5.7.7 2 1.6 2.3-.2.3.2.7.4 1 .4-.7.2-1.1.1-1.6.2 0 .3-.1.5-.1-.9-.7.2-.9.2-1.3 0-.6-.8-.8-.4-1.4l.2.4c0-.3-.1-.4-.2-.6-.1 0-.1.1-.1.1 0-.4-.1-.8-.5-.8 0 .1.1.1.1.2-.4-.3-.4-.8-.4-1.1 0-.1.1 0 .1 0-.3-.3-.4-1 .1-.7 0-.2.1-.3.2-.5.1.2.2.3.3.5 0-.2.1-.4.1-.5.4-.4 1-.2 1.4.1-.3-.5.1-1-.1-1.3.4-.4.5-1 1-1.4.2.1.4.1.6.2-.1-.5-.3-.8-.8-1.1 0 .1-.1.1-.2.2.1-.2 0-.2.1-.2l-.3-.3s-.2 0-.4-.3c-.2-.1-.6-.3-.7.2-.1-.1-.2-.3-.3-.4h.4c-.2-.1-.2-.1-.5-.1.3 0 .9.2 1 .2.2-.4.2-.9-.1-1.3.1 0 .1.1.1.1-.4-.2-.7-.5-.6-.8 0 .1.1.1.2.2 0-.1-.1-.2 0-.2.1.3.4.4.6.6 0-.2.1-.3.1-.6.1 0 .7.2.9.4.1-.1 0-.2.1-.2.3.1.4 0 .6 0 .1 0 0 .2.2.1 0-.2-.1-.1-.2-.2 0-.2.1.1.2-.1h-.4c0-.4.1-.3-.2-.4-.2-.3.2-.2-.3-.3.4-.3.3-.1.3-.4.1 0 .2 0 .3-.1l-.2-.6c-.3.1-1.3-.5-1.2.2-.1 0-.1-.1-.1-.2-.1.1-.2.3-.3.3.3.1.2.2.4.3.3.1.1-.1.3.2l-.2-.2v.2c-.6-.2-.6-.8-1.3-.9l.2.1c-.2-.1-.3-.1-.4-.2-.3 0-1.2-.1-1.8-.1h.2c-1.3-.5-2 0-3.4 0 0 .1.2.5.2.5 1.3.1.2 1.2-.8 0 0 .2-.1.3-.2.5-.5-.1-1.8 0-1.2.9l-.3-.2s.2.2.1.3c-.1-.2-.3-.3-.4-.5V7c-.2 0-.2-.1-.5 0 .2-2-2.3-.4-3-.3.2-.5-.4-.6-.6-.2 0-.1-.1-.2-.1-.3 0 0-.2.2-.1.2-.1-.1-.1-.2-.1-.3-.1 0-.2.1-.3.1.1-.1.1-.2 0-.3l.2.1c-.6-1.1-1.1.4-1.3.6 0-.1 0-.1-.1-.1v-.4h.1l.1.3V6c-.2.1-.5.3-.6.3.1-.1 0-.1.1-.3.2 0 .3 0 .5-.1-.7 0-1.4.1-2.1.1.1 0 .3.1.4.2-.4.3-.6.5 0 .3-.2.2 0 .2-.2.4.2.1.3.3.5.4-.3-.1-.7-.1-.3.3-.1 0-.1.1 0 .1-.1.2-.2-.1-.1.1-.4-.2-1.1-.5-1.1.1-.4 0-.7-.1-1-.3.1.4.3.8.3 1.2-.1 0-.1-.1-.2-.2-.2.1-.7-.2-1-.4.1-.1.2-.1.2-.1s-.2-.1-.2-.2c-.2.2-.1.2-.5-.1.3 0 .4-.1.5-.1-.2-.1-.2-.2-.5-.2 0-.1.1-.2.1-.3-.1 0-.1 0-.2.1 0-.2 0-.3-.2-.5l-.1.1c-.2-.2-.1-.2-.4-.1-.3 0-.2-.2-.4.1h-.1c0-.1.1-.1 0-.2-.2-.1-.7 0-.8.1.1.2.1.6.2.7-.3 0-1.5.5-1.5-.2-.5 0-1 .1-1.4.4.1.1.1 0 .2.1 0 0-.1.1-.1.2-.1-.3-.2-.3-.5-.6 0 .5-.2.4-.4 0-.4.1-.8.4-.1.3-.2.3-.9.9-.7 1.1-.1.1-.3.1-.4.3.2-.6.5-1.2.5-1.8-.1 0-.1.1-.2 0 .8-.5.6-1.5 0-1.7.2.1.3.1.4.1-.2-.3-.4-.4-.6-.6.1.2 0 .1 0 .2-.7-.7-.9-.6-1.7-.3 0 .4.2.2-.3.5.3-.5 0-.9-.5-.6 0 0 .1-.2 0-.2-.2.2-.2.2-.4.2.6-.6-.2-.9-.6-.5-.6.6.2 1.4.7 1.5-.3 0-.6.1-1 .2.6-.1.8-.1.6.3-.1-.6-.5-.2-.6.1-.1 0 0-.1-.1-.2 0 .1 0 .2-.1.3v-.3c-.2 0-.5 0-.7.1 0 .1-.1.1-.1.4.1 0 .1-.1.3-.1-.6.5-.9.8-1.5 1.2h.3c-.1 0-.2.1-.2.3-.1-.1-.1-.2-.3-.2.2.2.2.3.5.4h-.3v.1c.7.1.6.4.7.9-.1-.2-.2-.1-.2-.5-.5.3-1.1.4-1.6.6.3.4.3 1 1 .9.3.4 1.3 1.2.9 1.7.5.4.9.1 1.2.6-.4-.4-.3-.2-.6-.1-.5-.3-.9-.5-.9-1 0 .1-.1.3-.2.4-.1-.4-.1-.7 0-1.1-.7.2-1.5-.8-1.9-.1.6.3.1.3-.3.3.3.5.9.5 1.2.6-1.3 0-1-.3-1.8-1.3.2.5 0 .9.1 1.4 0 .1.6 1.4.7 1.5.3.2.9-.2 1.5.3.3.2-.2.7.5.6-.8.3-.4-.4-.8-.6-.2-.1-.2-.5-.5-.2-.1.1-.6.4-.2.6.4.2.1 1.2-.2 1.4-.2.2-.9.1-1.3 0 .3-.1.5-.1.7-.1 0 .1 0 .1-.1.1.3 0 .3.1.3-.2.7-.5-.2-1.8-.6-2.6-.5-1-.4-1.9-1.7-1.9.1.7-.4 1.8.2 2.1-.3.6.4.8 1 1.1 0 .1 0 .5-.1.6-.3-.3-.9-.7-1.3-.6-.4-.7-2.1-.4-.9.4-.4.2-.2.1-.4.4-.1-.1-.2-.2-.3-.5-.4.4-1 .3-1.1.7-.2 0-.1-.2-.2.1-.1-.1-.1 0-.3-.1.2-.4 0-.1 0-.4.1 0 .2-.1.3-.1-.3.2-.2.1-.4.3-.2 0 0-.2 0-.2 0 .1-.1.2-.2.4 0 0 0-.2-.1-.2-.3.2-.6.4-.9.5 0 .1.1.1.1.2-.5.1-.3.5-.7.5-.5 0-.7-.5-.1-.6-.1-.4-.6-.5-1.1-.5.5.3.7 1.3.6 1.8-.8-1-1.1.7-1.2 1.1-.3-.2-.6-.3-1-.5-.1.3 1 1.3-.2.7-.6-.3-.3-1.2-1.1-1.2.1-.1.1-.1.1-.2h-.2l.1-.1-.3-.3c.5.2 1 .6 1.7.6 1.3-.2 1.2-.9.4-1.5 0 0 0 .1.1.1-.6-.1-1.2-.7-1.9-.8 0 .1-.1.1-.2.2v-.2c-.1 0 0 .1-.1.1s-.1-.1-.3-.1v-.2c-.1 0 .2.1.3.1-.1-.1-.2-.1-.4-.2 0 .2 0 .1-.1.3-.4-.2-.2-.1-.5-.1-.1-.1-.2-.2-.4-.3.4 0 .5-.1.8-.2-.2-.1-.3-.1-.4-.1-.1-.2 0-.1-.2-.1.1 0-.1-.1-.1-.2-.1.1-.1.2-.1.4-.1 0-.1-.1-.2 0l.2-.2s-.1.1-.1 0c.1-.2 0 0 0-.1l.2-.2c-.1 0-.1 0-.1-.1-.2.1-.2.1-.3.1 0 .3 0 .2-.2.5v-.4c-.1.2-.3.5-.4.7.1-.2.1-.4.2-.6-.1 0-.1 0-.1-.1l-.1.1c-.2 0-.1-.1-.3 0-.1.2-.1.4-.1.6-.1-.2-.4-.2-.6-.2.2.2.1.2.3.4-.4-.3-.3-.1-.3.1-.1 0-.2 0-.2.1 0-.1.1-.3 0-.4-.1.1-.1.2-.2.4 0 0 .1-.3 0-.2 0 .2-.1.2 0 .5-.1-.1-.2-.2-.3-.2 0 0 .1.1.2.1-.2-.1-.1 0-.1.1-.1 0-.1-.2-.1-.2 0 .2 0 .2-.2.3 0 0 .1 0 .1.1-.2.1-.2.2-.4.3h.4l-.1.2c-.1 0-.2-.1-.3-.1.1 0 0 .2 0 .2-.2-.2-.1-.1-.3-.1 0 .1.1.1.2.1l-.3.1v.2c.1 0 .1-.1.2-.1 0 .1-.1.1 0 .3-.3 0 0-.1-.3.1.2 0 .2 0 .3.1-.5 0-.6.2-.7.4v.1c.1 0 .2.1.2.1s-.1 0 0 .1h-.3c0 .1.1 0 .1.2-.2.1-.2.3-.1.4-.5.5-.5.4-.9 1 .1.1 0-.1.1.2.2-.2.3-.2.4-.4 0 .2-.1.2-.2.4-.3 0-.1 0-.4.1v-.3c-.2.1-.1 0-.1.1-.1.1-.2.1-.3.1.1.1 0 0-.1.1.2.1.1 0 .2.2-.1 0-.2-.1-.3-.2 0 .1.2.2.2.2-.2-.1-.3-.1-.5-.2 0 0 0 .1-.1.1.2.1.1 0 .3.1-.2 0-.4.1-.6.1.1 0 .2.1.3.1v.1s-.2-.2-.2-.1c-.2.1-.1.1-.4.1.2.1.2.2.5.2-.2 0-.4.1-.6.1.1.2.1 0 .3.1l-.2.1c.1.1.6.2.7.1l.1-.1c0 .2-.1.2-.2.3 0 0 .1-.1 0-.1-.2 0-.4.1-.6 0v.1h.2c0 .1-.1.1-.1.2s.1-.1.2 0c0 .2-.1.1-.1.3.2-.1.2-.2.4-.2 0 0-.2.2-.1.2-.1 0 0-.1-.1-.1 0 .1-.1.2-.1.2s.2 0 .2.1l-.4.2c0 .1.1.1.1.2l.1-.2c.1.1 0 .2.1.3h.2c-.2 0-.1 0-.1.1-.1 0-.2-.1-.3-.1v.1c.4.4.8.6 1 .1.2-.2.3-.1.2-.5.1.1.2.2.2.3.1-.2.2-.3.3-.6.1.2.1.3.3.5v.5l.1-.1c-.1.6.6 2.2 1.1 1.1.6.2.6-.6.5-.9h.2c-.2-.2 0-.2-.2-.3.2-.1.2-.2.3-.3 0 0 .1-.1.2-.1-.2 0-.5-.1-.7-.1.7 0 .7 0 .6-.6 0-.2-.3-.7-.4-1.2.5-.4.8-.5 1.3-1.2 0-.1-.1-.1-.2-.2.1-.2.1-.1 0-.3.1-.1.1 0 .1-.3.4-.1 1.3-.1 1.2.5-.4.1-.6.4-.7.7-.7.1-.7 2 .2 1.8 0 .1.1.2.1.4.2-.2.7-.3.8-.3.1-.1 0-.1.1-.2.3.1.5.1.7-.1.1.1 0 .1.2 0 0 .1-.2.1-.1.1s.3.2.5.3c-.2.1-.4.2-.6.2 0 .1.1.2 0 .2-.5-.2-1.7-.2-1.3.4.1.2-.1.2.2.2.1.6-.1 1-.5.3-.5.2-.5.7-.5 1.2 0 .1.7.2.6.3-.1.3-.9.2-1.2.3.1 0 .2-.1.2-.2-.3.1-.2.1-.4 0 0-.1.1-.1.1 0-1-.3-1.3.6-2.2.3 0-.1.1 0 .2-.1-.3.2-.4.1-.7.2 0-.1.1 0 .2-.2-.1 0-.3.1-.3.1-.3-.4-.2-.8.2-.9v-.1c-.2-.2-.3-.2-.6-.3 0 .1.1.1.1.2h-.1v-.1c-.2.1 0 .2-.3.1 0 .1-.1.3-.1.5.1.2.2.3.4.5 0 .2-.1.3.4.5-.6-.1-.2-.1-.5.2l-.1-.2v.2c-.2-.1-.1-.1-.4-.1l.1.2c-.6-.2-1.3.2-1 .7-.1.1-.2 0-.1.1 0-.1-.2 0-.3-.1.1 0 .1.1.2.1-.6-.1-1 .7-1.2.8-.3 0-.5.1-.8-.1.1.2.1.3.2.5-.4-.1-.7-.1-1.1.1 0 .1.2 0 .2.1l-.1.1c.1 0 0 0 .1.1.5 0 .6.1.9.3-.2.2.2.5.4 1l-.2-.2c.1 1.6-1.5.5-2.4.8-.7.2-.2 1.2-.6 2.2l.2-.1c0 .1-.2.1-.1.2h.2c-.1.1-.1.4-.1.6.6-.2.9.3 1.3.3.5 0 1.4-.2 1.6-.5.3-.3.3-.9.5-1.3.1-.2.5-.4.7-.6.2-.2-.1-.5.3-.7.1-.1.6.2.8.2.2 0 .5-.5.7-.5.7.1 1 .5 1.4 1 .6.7 1.7.6 1.4 1.8.5-.3.1-1.6.8-.9-.1-.5-.8-.5-.8-.9-.7 0-2.2-1.7-.9-1.6 0 .1.1.3.1.4l.3-.3c.1.2.3.3.4.5 0 0-.1-.1-.1 0 .3.1.5.3.9.5h-.1c1.3.4.7 2.1 2.2 2.2-.3 0-.5.1-.7.1.2.2.2.3.3.5.1 0 0-.2 0-.1.1.1.1.2.2.3.2-.3-.1-.1.2 0 0-.1-.1-.3-.2-.4.2 0 .1.1.3.1 0-.1-.2-.1-.2-.2.1 0 .3.1.4 0-.2-.2-.2-.4-.5-.5.2 0 .1-.1.1-.2l.1.1c-.2-.3-.1-.4-.1-.7.1.1.1.2.3.3-.1 0-.1-.1-.1-.1.1 0 .1.1.2.1l-.1-.1h.2l-.2-.2c.3-.2.7-.2 1.1 0-.1.1-.1 0-.1.2.3-.3.5-.4.9-.4-1-.6-.1-1.4.1-2.1.2-.2.5-.5.9-.4-.1 0-.3 0-.4.1.3.1.6.2.8.3-.2.1-.2.1-.3.2.4.4.9.3 1.4-.1-.5.1-.4.1-.7-.3.1.1.1.2.3.4-.3-.2-.3-.1-.6-.3.2 0 .3-.1.5-.2v.2-1c.4.1.9-.2 1.1-.4.2.1 0 0 .3.1-.2.1-.2.3-.2.2-.1.1-.1 0-.3.1.1.2.1.1.2.2-.2.2-.2.2-.2.4-.1 0-.2-.1-.2-.1 0 .1 0 .1-.1.1.7.3 1.8.9 2 1.6-.6.6-1.7.1-2.2 0-.8-.1-1.5.3-2.3.3.1.1.2 0 .3.1-.1.1-.3 0-.3.1 0 0 .1 0 .1.1-.5-.1-.9-.1-1 .4.1 0 .2-.1.3 0 0 .2-.1.2 0 .2-.3.2.1.2-.2.2.2.3.3.5.3.7h.3c-.1 0-.2.1-.3.1.3-.1.4 0 .6 0 .3.4 1.8-.1 2.6-.1-.1.5 0 2.8-1.3 2.2-.1 0 .1.2 0 .2-.3-.3-.3-.2-.6-.2h.1c-.8.4-1.7-.1-2.5-.2-.4 0-.6-.4-1-.3-.9.2-.2.7-.7 1.1-.1.1-1.3-.3-1.4-.4-.2-.1-.2-.4-.6-.6-.3-.1-.6 0-.8-.1-.8-.4-.4-.8-.3-1.6-.1 0-.1.1-.2.1-.3-.4-2.1-.1-2.7.1-.8.2-2.2 1-2.8.3-.3.3-.9.8-1.2 1.1-.4.6-.3 1.1-.7 1.7-.2.2-.7.5-1 .8-.2.2-.5.6-.8.9-.4.3-.6.9-.7 1.4.5.1.4 1.6-.2 2.2.3.3.2.4.5.5-.2.1-.1 0-.2 0v.3c.1-.1.1-.1.2 0 0 0-.2.1-.2 0 .3.2.2.3.7.3h-.2c.1.1.2.1.1.2.8.3.7 1.2 1.4 1.5.4.2.8.7 1.2.8.6.2 1.4-.2 2-.2.5 0 1.1-.3 1.8-.3 1-.1 1.1.8 1.7.7 1.8-.1.5.7 1.2 1.5h-.2c-.1.2 0 .2-.2.3.2.6 1.2 1.9 1.4 2.2.2.2.4 1.5.4 1.8-.1.6-.9 1-.8 1.8 0 .8.7 1.4.9 2.1.2.5.1 1.2.3 1.7.3.6.7 1 .9 1.7.2.5-.1.7.1 1.3.4.2 2.2-.1 2.7-.3 1.2-.4 2.6-1.7 2.8-3l-.1.1v-.1c.7-.7 1.2-.4 1.2-1.4v-.1c-.1 0 0 .2-.1.2-.1-.4-.1-.6-.2-1 .6-.1 2-1.2 2.2-1.7.3-.7-.1-1.6-.3-2.3-.4-1.2.3-2.1 1.4-3.2 1.3-1.2 2.3-2.4 3.1-3.7V41c-1.1 0-2.3.7-3.3 0 .6-.4-.7-1.1-1.1-1.5-.1 0 0 .1 0 .1-.4-.5-1.2-1.6-1.1-2.2 0 0 0 .1.1.1-.1-.5-.9-.8-.6-1.1-.5-.5-1.2-1.6-1.4-2.3h.1c.2.3.4.6.7.8 0-.2.2-.5.2-.7-.3.8 1.1 1.6 1.5 2.3.3.6.4.9.8 1.5.3.4 1 1.1.8 1.6.5 1.1.2.9 1.1.8.7-.1 1-.4 1.7-.5 1.2-.4 1.8-1.1 2.9-1.6-.1-.4.1-.4.1-.7-.1 0 0 .1.1.1 1.2-1.2-1.3-1.1-1-2.3h-.1c-.7 1.1-1.6 1.3-1.9.1 0 .2-.1.3-.1.5-.2-.3-.5-.8-.6-1l-.7-.7c.2-.2.3-.4.4-.4h.1c.5.3.8 1 1.6 1.3.5.2.8-.1 1.2 0 .5.1.3.7 1.1.7.7 0 1.3.1 1.8.1s.6 0 1 .1c.3.1.3.7.9.4-.1.4.2.4.6.3h.1c-.4.2-.3.2-.6.2.3.6 1.4 1 1.3-.1.1.1.1.1.2 0-.2.3 0 .1.1.3-.4.7.3 2 .7 2.9.2.5.5 1.1.8 1.5.6.7.4.7 1.1.4 0-.3.1-1.6.3-2.1.3-.7 1-1.1 1.7-1.9h-.1c.5-.1.7-.7.9-1.1.1.1.4.2.3.1.1.1.1.1.1.2.1 0 .1-.1 0-.1.3-.1.2.2.3-.3v.2c0-.1 0-.1.1-.1v.1c0-.3.1-.3.1-.6.5.2.6.6.8 1v-.1c.1.1.1.2.2.3v-.1c.1.1.2.2.5.4-.2.1-.1-.1-.1.1l-.1-.1.3.3V38c.3.4.4.8.3 1.3 0-.1.1-.2.2-.3l-.1.3c-.2 0 .1-.1.2-.2zM52.8 14.8c-.1 0 .2.3 0 0zm-1.3 12.3c-.2.4.1-.1 0 0zm2.6 2.1c-.1-.1 0 0 0 0zm.8.2s.2-.1 0 0zm1.7-2c0 .1.1.3 0 0zm-5 19.6c.1-.1.3-.2 0 0zm6.9 7.7s0-.1 0 0zm4.4-13.5c.1-.1-.1.1 0 0zm-.2-.5c.3-.1-.3.1 0 0zm-3-7.1v-.3.3zm0-.6c.1 0 .1 0 0 0zm.1-.1c.1 0 .1.1 0 0zm7.7 2.9c-.1.2-.1.4-.2.5.1-.2.2-.3.2-.5zm-1.3-4.6c-.8 0-2.3 0-2-1.1 0 0 0 .2.1.2.1-.4.1-.4.4-.7-.3-.2-.5-.4-.7-.7 0 .1-.1.1-.1.2 0-.3-.4-.7-.3-1-.7-.2-.2-1 .2-1 0-.1-.1-.1-.1-.1h.2c.2-.7 1.4-.6 1.6.3-.4-.1-.8 0-.5.4h-.4c.2.3.7.5.8.7.2.3.3 1 .5 1.4-.1 0 .1-.1.1-.1 0 .1.1.2.1.2-.2 0-.1.1-.2.2.2 0 .3.6.3 1.1zM76.9 41.7c.4 0 .1 0 0 0zM76.8 42.2c-.1-.2.1.2 0 0z"/><path d="M77.5 42.5c-.2-.4-.3-.6-.7-.8-.1.1-.1.1-.2.1.2.5.7 2 .9.7zM76.9 41.6c-.2.1-.1.1 0 0zM79.4 37.1s.3-.2 0 0zM79.7 37.1s0-.1 0 0zM79.6 37.1c.1 0 0 0 0 0zM79.6 37.1c0 .1 0 0 0 0zM80.4 36.6c0 .1 0 .3 0 0zM80.5 36.7c.1.2.1.2 0 0zM80.7 36.7c.1.1 0 0 0 0zM50.2 21.7c-.3.1-.6.4-.7.6 0 0 .1 0 .1.1.3-.2.5-.4.6-.7zM50.4 23.2c-.1 0 .3.1.3.1v-.2c-.1.1-.3.1-.3.1zM51.7 23.1c-.3-.2 0-.1 0 0zM50.9 22.8s0 .1 0 0zM50.7 23.1c.1 0 .2-.1 0 0zM51.1 23.4c-.1 0 .1.1.2.1v-.1c-.3-.2-.1-.1-.2 0zM49.6 22.2s.2 0 0 0zM50.2 22.7s-.1 0 0 0zM50.3 23.2c-.1-.3 0 .1 0 0zM50.3 21.9c.1 0 .1 0 0 0zM50.3 23c-.1 0 0-.2-.3-.2 0 .4.1.2.3.2zM50.2 23.2s-.1-.2 0 0zM50.4 22.8l.3.3c.1-.2.1-.2.1-.5h-.2v.2h-.1c0-.2 0-.1-.1 0zM51.8 14.8c0-.1.2-.2-.1-.3-.1.1-.1.2-.1.3.1.2.1 0 .2 0zM52.1 14.3c-.1.1-.1.1-.2.1.3.2.2 0 .2-.1zM51.6 15c.1 0 .1-.1 0 0zM52.3 14.2c0 .2 0 .1 0 0zM51 15.2c0 .1 0 .1 0 0zM51.1 15s-.1-.1-.2.1c.1.1.1-.1.2-.1-.1.3 0 0 0 0zM53.5 13.4c.1.1.1.1 0 0zM48.5 21zM53.8 13.3c-.1 0-.1 0 0 0zM52.5 14.1c-.1-.1-.1-.2-.1-.2-.1.2 0 .2.1.2zM52.3 14.2c-.1.1-.2.1 0 0zM53.9 13.4c.2 0 .2.2.3 0-.1 0-.1 0 0-.1-.3-.1-.2.1-.3.1zM52.6 14c0 .1-.1.2.1.2 0-.1-.1-.1-.1-.2zM52.2 14s.1 0 0 0zM53.2 13.6c0 .1-.1.1-.2.1.4 0 .2-.2.2-.1zM53.1 13.9c.1 0 .2.1 0 0zM53.5 13.7c0-.1 0-.1 0 0zM53.3 13.9c0-.3 0-.2 0 0zM52.2 14.1c-.2.1-.2.1 0 0zM49.4 18.5c.2-.3-.1.1 0 0zM49.2 18.5c-.2-.1 0 .1 0 0zM49.4 18.3c-.1.1-.2.1 0 0zM49.2 18.7c0-.1 0-.1 0 0zM48.4 19.1c0 .2 0 .1 0 0zM48.6 19.2c-.1-.1-.1-.1 0 0zM50.4 17.1s-.1.1 0 0zM50.5 15.8c0 .1 0 .1 0 0zM48.3 19.4c-.2 0-.1 0 0 0zM50.6 15.5c-.1.3-.1.2 0 0zM50.4 17.4c-.1.1-.2.1 0 0zM50.1 17.6c.1 0 .2.1 0 0zM48.5 20.4c-.1.1 0 .1 0 0zM48.4 20.4zM51.1 15.4c-.1 0-.3-.1 0 0zM50.9 16.2c0-.1 0-.1 0 0zM48.2 19.3c.1.1.1.1 0 0zM50.5 17c.1-.2 0-.1 0 0zM48.4 20.4c0-.1 0-.3 0 0zM48.3 20.6c.2.1.1 0 0 0zM48.3 19.9c-.1 0-.2.1 0 0zM48.3 20.2s0-.1 0 0zM48.2 20.1c.1 0 .1 0 0 0zM51.3 15.3l.2-.2-.1-.1c.1 0-.1.2-.1.2-.1 0 0-.2 0-.3-.1.2-.1.3-.2.4.1-.1.1 0 .2 0zM48.3 20.3c0-.1 0-.1 0 0zM50.7 15.6c.2-.2.2-.2 0 0zM50.6 15.6c0-.1 0-.1 0 0zM50.4 16.8c.1 0 .2 0 0 0zM51.5 14.9c-.2 0 0 0 0 0zM51.3 14.8c.3-.2-.5.2 0 0zM52.7 20.9c0-.3 0-.2 0 0zM52.7 22c.1 0-.2.1.1.1.1-.2.1-.3.2-.5-.4.1-.2.3-.3.4zM52.1 22.2v.3c.1-.2.1-.3.1-.5 0 0 0 .2-.1.2zM52.9 21.3c.1 0 .1 0 0 0zM52.9 21.6c.1 0 .2 0 0 0zM50.5 21.5c-.1 0-.1.1 0 0zM53.3 18.4zM53.7 20.1c-.2 0 0 0 0 0zM53.5 20.1s.1 0 0 0zM53 20.2s.1.2.2.2c0-.2 0-.1-.2-.2.1-.1.1 0 0 0zM53.8 20.2c.1 0 .1 0 0 0zM54.4 17.3c-.2.2-.1.1 0 0zM53.2 18.5c.2 0 .2 0 0 0zM53.9 20.3s.1-.1 0 0zM54 20.4s-.1 0 0 0zM54.2 20.9c-.1.1 0 0 0 0zM53.9 21.1c.2-.1.2 0 .3 0-.2-.3-.2-.1-.3 0zM54 21.2c-.1.1-.2.1-.2.1v.3c.5-.3.3-.3.2-.4zM54.2 21.2c.2 0 0 0 0 0zM51.8 27.7s.1.4 0 0zM52.8 28.7c-.2 0-.2-.1 0 0zM52.1 28.1c-.2-.1 0 0 0 0zM52.7 28.5c-.2 0-.2 0 0 0z"/><path d="M52.6 28.6c.1.1-.1-.2 0 0zM52.1 28.3c-.1-.1-.2-.3 0 0zM51.9 28.1zM51.8 28c0-.1-.1-.2 0 0zM51.9 27.9c.1.1.1.2 0 0zM48.1 24.7c.1.1-.1-.1 0 0zM48 24.8s0-.1 0 0zM44.6 19.3c-.2-.2-.1-.1 0 0zM44.7 19.2c-.1-.1-.1-.1 0 0zM44.7 19.1c.1 0 0 .1 0 0zM44.7 19.7c0-.1-.1-.3 0 0zM44.7 19.3s-.3-.4 0 0zM44.7 19.4c-.1 0 0 0 0 0zM44.1 23.1c0 .1-.3.2.1.1-.3.1-.3.2-.6.1v.2c0-.1 0-.1-.1 0l.2.1c0 .1-.2.1-.2.1v.1c.1 0 .2.1.4.1l-.3.3c.1 0 .2-.1.3-.1 0 0 0 .1.1 0-.2.1-.3.2-.4.2-.1 0-.1 0-.2.1h.2c0 .1-.2.1-.2.2h.2c-.1 0-.1.1-.2.1.1 0 .2 0 .2-.1 0 .1 0 .1-.1.1.1 0 .1 0 0 0 .5-.1.6-.3 1.2-.3.1-.4 0-.9.2-1.2.1 0 .1 0 .1.1-.2-.4-.1-.4-.6-.4l.1-.1c-.1 0-.1 0-.1-.1 0 0-.1.1-.1.2l-.2.2zM44.9 22.7c-.1-.3.1.1 0 0zM44.8 22.1c.1.1.1.1 0 0zM44.8 21.8c0 .1-.1.1-.2.1l.2.2.1-.1c-.1 0-.1-.1-.1-.2zM44.6 21.6c0 .2 0 0 0 0zM44.8 22.1c0 .1 0 0 0 0zM44.8 22.6zM44.7 21.5c-.2-.1-.1.1-.1.1l.2-.2c-.1-.2-.1.1-.1.1zM44.5 21.8c0 .1.1.1 0 0zM44.5 22.1c-.1.1-.1 0 0 0zM44.5 21.9c0 .1 0 .2 0 0zM44.6 21.8c-.1 0-.2-.1 0 0zM44.9 22.5s.1-.2-.1-.1c0 .1 0 0 .1.1zM44.6 22.4c.1-.1 0-.1 0 0zM44.7 22.3s.1-.1 0 0zM46.4 20.3c0 .1.1 0 .1-.1h-.1c-.1.1-.1.1 0 .1zM46.4 20.1c-.1.1-.1.1 0 0zM46.4 20.4s-.1.1 0 0zM45.8 21c-.1 0-.1 0 0 0zM46.4 20.1c-.1-.1.1 0 0 0zM44.9 22.8c-.2-.1-.2-.1 0 0zM46.5 20s-.1.1 0 0zM45.7 21.1c.3 0-.1 0 0 0zM45.7 21.2c-.1-.1 0 0 0 0zM45.3 23.5c-.1 0 .3 0 0 0zM45.1 22.8c.1.2 0 0 0 0zM45.4 24s0-.2 0 0zM45.2 22.7s-.1 0 0 0z"/><path d="M44.9 21.8c0 .1 0 .2.1.1-.1.1-.1.1-.3.2.2 0 0 .1.3 0-.1.2-.1.5-.2.7 0-.1.2-.3.2-.5 0-.1-.1.3-.1.2l.1-.2c0 .1 0 .1.1.1-.1.2-.1.5-.1.6.1-.1-.1-.1.2 0 0-.1 0-.1-.1-.1h.5c-.2.4-.1.2.1.4v.4c-.2 0-.1 0-.1.1-.3 0-.3.1-.6.2.1 0 .2-.1.2-.1-.1.3 0 .3-.4.5.1 0 .1 0 0 .1.4.1.5.2 1 0-.4.3-.8.4-1.1.8.3-.1 2.2-.2 2.5-.7-.1 0-.2.1-.3 0 0-.1 0 0-.1 0 .3-.1.7-.8-.1-.6 0-.1-.1-.1-.1-.1-.1-.3-.1-.2-.3-.4h.3c-.3-.4-.6-1.2-1.3-1.2.2 0 .2-.1.4-.1 0-.1-.2-.1-.2-.1.6-.4.4-.8-.3-.6.1-.1.2-.4.3-.6h-.6c-.1.2-.1.2 0 .4h-.2c.3.5.3.5.2.5zM47.1 24.8s.1.1 0 0zM46.4 25.2c.1.1.1.1 0 0zM49.7 29c.1.2.1.3.2.4.1-.3.1-.4.1-.7 0 .1-.2.1-.3.3zM51.9 31.8c.2 0 .1 0 0 0zM50.5 28.8c-.1-.1-.3-.1 0 0z"/><path d="M49.7 29.7c0 2.1.7-1.2 0 0zM49.7 29.5c0-.1 0 0 0 0zM52.3 30.9c-.2-.1-.7 0-1.1 0 .2.3.6.4 1 .6 0-.3.1-.5.1-.6zM50.6 28.9c.1 0 0 0 0 0zM47.9 30.3c0-.1.2-.2 0-.2-.3.1 0 .1 0 .2zM48.3 30.1c-.1-.1-.3-.2 0 0zM47.5 30.5c-.1-.1-.1-.1 0 0zM56.3 31c.3-.1-.1 0 0 0zM55.8 29.9c-.1.2 0 0 0 0zM56.2 31.5c.1 0 .1-.2 0 0zM56.6 31.7c-.1 0 0 0 0 0zM56.9 31.5c.1-.1-.1 0-.2.1v.1c.2 0 .1-.1.2-.2zM55.5 29.6c0 .1 0 .1 0 0zM55.6 31.4s-.1 0 0 0zM55.6 30.4c0-.1 0 .2 0 0zM55.6 30.9c.1.1.2.2 0 0zM55.5 31.2s.1-.2 0 0zM55.5 31.1zM55.6 31.3c-.1-.1-.1-.1 0 0zM56.5 31.8c.2.2 0 0 0 0zM56 30.7s.2 0 .1-.2c-.1.1 0 .1-.1.2zM55.2 30.4c-.1-.1 0 0 0 0zM55.9 31.3c.1-.1.1-.1 0 0zM56.2 30.2c-.1.1-.3 0-.2.2.1 0 .1-.1.2-.2 0 .1-.2.2 0 .2.1-.1-.1-.1 0-.2zM56.2 31s-.2.1 0 0zM55.8 31.3c0-.1.1-.1 0 0zM55.9 31.1zM55.9 29.7s0 .1 0 0zM55 31.6c0 .1.1-.2 0 0zM54.2 30.6c-.1-.2-.1 0 0 0zM54.1 30.9c.2.1.2.1 0 0zM53.8 30.1s.1.3 0 0zM55.1 30.3c0 .1 0 .1 0 0zM54 30.7c.1.1 0 .1.2.1 0-.2-.1-.1-.2-.1zM55 31.5zM55 30.4c.1.1.4.4.6.5-.1-.2-.3-.4-.6-.5zM55.3 31.8c.2.3.7.3 1 .1-.3.1-.9-.1-1-.1zM55.8 31c.1.1 0 .1 0 0zM56.7 31.4s.1.1 0 0zM56 29.8s0 .1 0 0zM59.2 31.8c-.1 0-.6.1-.8.2.4.3.6.2.8-.2zM36.9 30.4c.1.1 0 .1 0 0zM37.2 30.4c.1.1 0 .1 0 0zM37.8 30.8c0 .1 0 .1 0 0zM36.7 30.5c.1.1.2.1 0 0zM40.9 33c-.2 0-.2-.1 0 0zM40.9 34.9c.1-.2.2 0 .2-.2-.3 0-.2.1-.2.2zM41.3 34.8c0 .2 0 .2 0 0zM40.6 34.8c.1 0 .1 0 0 0zM41.8 34.7s.1.1 0 0zM40.5 34.5c0 .1-.1.3 0 0zM40.4 35c.1 0 .1 0 0 0zM41.9 34.5c.2-.1.1-.1 0 0zM38.5 39.2c0 .1 0 .1 0 0zM38 39c0 .1 0 .1 0 0zM38.1 39c0 .1 0 .1 0 0zM38.5 39c-.1-.1 0 .1 0 0zM38.4 39.6zM38.2 39.6c.1.1.1.1 0 0zM37.7 38.9c-.2.1-.1 0 0 0zM37.7 39c.1 0 .1 0 0 0zM66.3 40.8c.2 0 .2 0 0 0zM67.2 40.6c-.2 0-.2-.1-.4.1.2 0 .4-.1.4-.1zM50.7 32.6s.1 0 0 0zM42.3 42.4c0 .1 0 .2 0 0zM49.3 45.1c.1 0 .1 0 0 0zM50.2 43.9s-.1-.1-.2.1c.2.1.1-.1.2-.1zM71.4 67.1c0 .1.1.3 0 0zM70.6 65c-.1 0-.2 0 0 0zM68.3 52.5c-.1.1-.2 0-.2.1.2.2.1 0 .2-.1zM67.4 52.8s-.2 0 0 .2c.3-.1 0 0 0-.2zM65.3 51.3c.1.2 0-.1 0 0zM65 49.8s-.2.2 0 0zM64.8 50.1c0-.2 0-.1 0 0z"/><path d="M65.5 50.6c0-.4-.1-.8-.2-1.1-.1.2-.1.1-.2.1 0 .4 0 .4-.3.5 0 .2 0 .1-.1.3l.1.2c-.1 0-.1 0-.2.1-.1 0 .1-.1 0-.1v.3s-.1 0-.1.1c-.1 0 0-.1 0-.1-.1.1-.1.3-.2.3-.3-.1-.2-.1-.3 0-.5-.1-1.2 2.3-.9 2.7-.5 1.1 1 .6 1.4.1.5-.8.9-2.3 1-3.1l.2.2c-.1-.3-.3-.4-.2-.5zM64.9 50zM95.7 49.6c.1.1 0-.1-.1-.1-.1.1 0 0 .1.1zM95.9 49.7c0-.1.2-.2.2-.2l-.1-.1h-.4c.1.2.3.2.3.3zM97.8 49.6zM97.5 49.8c.1-.1-.1 0 0 0zM97.7 49.6c-.1.1 0 0 0 0zM97.5 49.7c.1 0 .3 0 0 0zM97.9 49.5c.1-.1.2-.2 0 0zM97.9 49.6c0-.1-.1-.1 0 0zM99.7 61.9c-.2 0-.1 0 0 0zM97.9 50.6c.1-.1.2 0 .2-.2H98c-.2.1-.1.2-.1.2z"/><path d="M103.4 56.5c0-.5.1-1-.1-1.4-.2-.5-.6-.5-.6-1.1-.1 0 0 0-.2-.1v.2c0-.1-.1-.1-.1-.1-.1-.6-.1-1.1-.8-1.1 0-.1.2 0 .1-.2-.8-.2-.4-1.3-.6-1.9-.2-.4-.4-.3-.6-.7-.2-.3-.1-.5-.3-.8-.3.6-.1 1.9-.7 2.4-.5.4-2.3-.6-1.8-1.4 0-.1.2-.3.4-.6-.2 0-.1 0-.2-.1-.1.1-.1.2-.1.2-.3-.1-.1 0-.2-.2-.6.2-1-.2-1.5-.3.1 0 .1 0 .1.1.3.2.1.1.1.3-.5-.1-.8.1-.8.4-.2.1-.3.2-.4.4.1.2.1.1.3.2h-.2c0 .1.1.2.1.3-.2-.2-.1-.1-.3-.1-.3-.1-.3-.1-.6.1.3-.6-.3-.7-.6-.6l-.1.3c-.1 0-.1-.2 0-.2-.1.2-.1.1-.1.2-.3.1-.2.1-.2.2h-.3c.1.2.1.3.1.4-.1 0-.1 0-.1.1-.2-.1-.3-.1-.4-.1.2.3 0 .2 0 .6 0-.2-.2-.4-.2-.5-.7.6-.4 1-1.5 1.4-.7.3-1.6.2-2 .9v-.3c-.3.6-.5 1.3-.2 2-.1-.1-.1-.1-.3-.4 0 .2 0 .2.1.5 0 0-.4-.1-.2-.2 0 0 0 .1-.1.1.5.7.2 1.5.5 2.2.3.6-.5.9-.3 1.3.4.7 1.8 0 2.4-.1.6-.2 1.9-.9 3-.9.9 0 2.4.5 1.9 1.5.1.1.2.1.3.2.2-.4.7-.7.9-1.1.1.6-.3 1-.6 1.3.3-.2.4-.1.6-.5 0 .4 0 .3-.2.7.1 0 .4 0 .5-.1-.1.6-.1 1.2.5 1.6.8.5.8 0 1.3 0 0 .1-.1.1-.1.2.1 0 .1-.2.2 0 0 .2 0 .2.2.5V62c.3-.1.4-.2.7-.4h-.1c1.6 0 1.3-1.9 2.5-2.7.2-.3 1-1.6.9-2.4zM99.9 62.8s.3.2 0 0zM98.7 62.9c.1-.1.1-.1 0 0zM99.9 62.5c.1.1-.1.3.2.2-.1-.2-.2-.2-.2-.2zM99.9 63c0-.1 0-.1 0 0zM98.8 62.7c0 .1-.1.1 0 0zM98.7 62.7c0 .1 0 0 0 0z"/><path d="M99.3 61.7c-.1-.1-.1 0 0 0zM97.7 50.5c.1 0 .1-.1 0 0zM93.3 51.3c-.1-.2-.1-.2 0 0zM98.9 51.8c0-.1 0 0 0 0zM93.3 51c.1 0 0 0 0 0s-.1 0 0 0zM103.5 56.4s0-.2 0 0zM93.6 50.7c-.1 0 0 0 0 0zM103.6 55.1c0 .2-.1.3 0 .5v-.5zM98.1 51.2c-.1 0-.1 0 0 0zM102.8 54c-.1-.1-.1-.1 0 0zM102.9 54.5s.1.2 0 0zM96.4 49.4c.1 0 .2 0 0 0zM101.4 52.4c0-.2 0-.1 0 0zM100.1 49c.1.1.1 0 0 0zM99.8 63c-.4.3-.9.1-1.2-.2 0 .3-.1.7.1 1-.1 0-.1 0-.1-.1-.1.5.1.8.4.9.1-.2.2-.2.3-.4 0 .1.1.1.2.1 0 .2-.1-.1-.1.1.1-.2.2-.4.4-.6v.2-1zM100.1 49.2c0 .1 0 .1 0 0zM99 51.5c-.3.1-.2.1 0 0zM96.9 60.1c-.2 0-.2-.2-.5 0 .2.1.5 0 .5 0zM99.5 64.1s.1-.1 0 0zM99.1 64.4c0 .3 0 0 0 0zM98.6 62.5c0-.1.1-.2 0-.3-.2.3 0 .3 0 .3zM89.6 53.2c.1-.2.1-.1 0 0zM88.6 55c-.2-.2 0 .1 0 0zM88.5 55.2c.3.2-.1-.1 0 0zM103.9 69.8c.1 0 .2.1.2-.2 0 .1-.1.2-.2.2zM104.5 71.2c.1.1 0 0 0 0zM40.4 18.2c.4.2.7.2 1-.1.3 0 .9-.4 1-.6.1 0 0 .1.1.1.1-.3 0-.2.1-.5h-.3c0-.2-.1-.2-.2-.4l.2-.1c-.2 0-.2.1-.3.2-.3-.4-.4.1-.8-.1v.4c0-.2-.1-.3-.1-.5l-.3.3c0-.1 0-.2-.1-.3-.1.4-.2.3-.3.6-.1-.4 0-.7-.6-.8.1 0 .1 0 .2.1 0 .1-.2 0-.2 0 0 .1.1.2.2.2-.1-.1-.2-.1-.3-.2 0 .1 0 .1-.1.1l.1.2h-.1c0 .1.1.1.1.1-.1 0-.1 0 0 .1-.1 0-.1-.1-.2-.1-.1.1.1.1 0 .2h-.2c.3 0 .5.1.7 0 0 .2 0 0 .1.1l-.3.1h.3c-.3.1-.4.1-.8.2.2.1.2.1.5.2.1.2-.1.1.2.1l-.1.1h.3c-.2 0-.3.1-.5.1 0 .1.1.2 0 .2.3-.1.6 0 .7 0zM40.5 18.4c.1.1 0 0 0 0zM24.1 38.9c.2 0 .1 0 0 0zM24.2 38.6c0 .1 0 .2 0 0zM23.7 38.5c.1 0 .2 0 0 0zM23.9 38.8c-.2-.1-.1 0 0 0zM23.1 38.7c.2-.1.1-.1 0 0zM22.2 38.6c.3 0 .4.1.6-.1-.3-.2-.4 0-.6.1zM23 38.6c-.2 0-.2 0 0 0zM21.9 38.3c-.2-.1-.4-.2-.7-.3h.4c-.5-.3-1.1-.2-1.6-.2.3 0 .3.3.4.5-.3-.1-.6 0-.8 0 .3.1.8.1 1.1.4.2-.5.7-.2 1.2-.4zM21.8 38.5c-.2 0 .1 0 0 0zM36.4 2.7c.1 0 0 .2.2.1-.1-.3-.2-.1-.2-.1zM36.7 1.5c0 .1.1 0 0-.1-.3.1-.1.1 0 .1zM37 1.6c-.1-.1-.1-.2 0 0zM36.5 3.2c0-.1.1-.2-.1-.3 0 .2.1.2.1.3zM35.4 2.2c-.1-.2 0 0 0 0zM31.2 3.3c.2.1.1 0 0 0zM35.2 2.6c.1 0 .1-.2 0-.7-.2.2-.1.4 0 .7zM36.3 2.1s.2.1.1-.2c-.2-.1-.1.1-.1.2zM42.9 3.5c0-.1.1-.2 0-.3-.1.1 0 .2 0 .3zM42.6 3.7c.1 0 .1 0 0 0zM42.5 3.6s.1-.1.1-.2c-.2 0 0 .1-.1.2zM28.6 6.4c-.1 0-.2-.2-.3-.1.1.2.2.1.3.1zM38.1 1.2s0-.1 0 0zM37.1 1.5s.3.1 0-.2c-.1.1 0 .2 0 .2zM38.3 1.2s.2.1 0-.2c-.1 0 .1.1 0 .2zM38.6.9c0-.1 0-.1 0 0zM38.6 1.1c.1-.1.2-.1 0 0zM30.6 16.5c.1 0 .1 0 0 0zM31.1 11.2c.1 0 .2 0 0 0zM31.1 11.7c.2-.2.2-.1 0 0zM31 11.9c.1.1.1 0 0 0zM31.2 10.8s.1-.1 0 0zM31.2 10.4c.1 0 .2.1 0 0zM31.2 9.3c0 .1 0 .1 0 0zM42.4 6.4c0 .1-.1.1-.1.3.2-.1.1-.2.1-.3zM42.1 5.4c.1.1-.1.2.1.1.2-.3 0-.1-.1-.1zM28.8 6.4c.1.2-.2-.3 0 0zM31.4 10.8c0-.1 0-.1 0 0zM31.3 10.8c0 .1 0 .1 0 0zM31.4 11.3c.1 0-.1 0 0 0zM31.3 11.2c0 .1.1.1 0 0zM31.2 11.4c.1 0 .1 0 0 0zM31.4 11c-.1 0-.1 0 0 0zM31.4 10.3c-.2-.1-.1-.1 0 0zM31.4 10.7c-.2-.2 0 0 0 0zM31.3 10.7c0 .1 0 .1 0 0zM31.2 11c.1 0 .2 0 0 0zM42.3 7.9l-.1.1.1-.1zM31.3 11.4c.1-.1.1 0 0 0zM39.8 11.9c.1 0 .1.1 0 0zM40 11.6s.2.1.3.1c-.4-.1-.3-.1-.6-.1.3.1.4.2.8.2-.1 0-.6-.3-.5-.2zM40.5 12.2c.2-.1 0-.1-.4-.3.2.3.3.4.5.6 0 0 0-.1.1-.1-.2-.1-.2-.1-.2-.2zM40.9 11.8s.1 0 0 0zM41.9 8.9s-.1.4 0 .6c.1-.2 0-.4 0-.6z"/><path d="M40.7 11.9c-.1 0-.7-.3-.7-.1.4.3.6.2.7.1zM39.6 13.3s-.1.1 0 0zM39.2 13.8c.1 0 .1 0 0 0zM40 14.4c.1-.1.1-.1 0 0zM39 13.5s-.1-.1 0 0zM39.5 13.7c.3-.6-.5-.2-.7.1.2-.1.4-.1.7-.1zM42 7.6s.1-.2 0 0zM42 7.3c0 .1 0 .1 0 0zM41.7 7.7c.1 0 .2.3 0 0zM41.8 10.1c.1.1.1.2.3.2 0 0 .1-.3.1-.2 0 .1-.1-.2-.1-.2-.3 0-.2.1-.3.2zM41.3 10.3c0 .1-.1.2.1.2.1-.2 0-.1-.1-.2zM41.6 10.6c.1 0 .2 0 0 0zM41 10.7c.1.2.2.4 0 0zM41.2 8.9c.1 0 .1.1 0 0zM41.4 9.1c-.1-.1-.1-.1 0 0zM31.4 9.7s-.1-.1-.3-.1c.1.1.2.1.3.1zM33.6 18.8zM33.6 18.7s0 .1 0 0zM33.6 18.6c.1 0 .1 0 0 0zM33.7 18.5c-.2-.1-.1 0 0 0zM34 18.1c-.2-.2-.1-.1 0 0zM33.9 18.3c0 .1 0 0 0 0zM34.4 17.2c-.1.1 0 0 0 0zM35.4 16.6s-.2 0-.1.2c.3 0 .1-.1.1-.2zM34.8 16.8c0 .1 0 .1 0 0zM34.7 16.9c-.1 0 0 0 0 0zM35.6 16.7c0 .1 0 .1 0 0zM31.9 19.4c0 .1 0 .1 0 0zM33.2 19.5s.1.1 0 0zM30.6 16.4c.1 0 .1 0 0 0zM31.3 9.8s0-.1 0 0zM31.5 19.5c.1 0 0 0 0 0zM32.9 20s-.3-.2 0 0zM32.7 20.1c.1 0 .2 0 0 0zM32.1 19.5c0-.1 0-.1 0 0zM32.3 19.9c0-.2 0 .1 0 0zM31 13c-.1-.1-.1-.1 0 0zM31.5 14.7c-.3 0-.1 0 0 0zM31.9 13.8c0-.1.2-.2 0-.2-.1.1 0 0 0 .2zM31.4 12.5c.2.2 0 0 0 0zM31.1 14.4c.1 0 .2.1 0 0zM31.3 14.3s.1.2 0 0zM31.8 12.8c.2.1.1 0 0 0z"/><path d="M39.3 14.7c.4-.1.7-.3 1.1-.7-.8-.2-1.1 0-1.8 0 .2 0 .4-.1.6-.1-.3 0-.6-.1-.9-.1.4-.2.3-.3.4-.4.1 0 .1 0 .1-.1.8.4.7-.4-.1-.3 0 .1.2 0 .2 0s-.2-.2-.2-.1c.1 0 .1-.1.1-.2.2.3.5.5.8.6 0 .4.4 1.1.6.4.1.3.2.2.2.4 0-.5 0-.5.1-.8l-.2.2c0-.2 0-.2.1-.4 0 0-.2-.1-.1 0 .1-.2-.1 0-.1 0 .1-.5-.5-.7-.9-.7.7-.2.2-.3-.2-.2 0 0 .1-.1.2-.1-.1-.1-.2 0-.2 0 .3 0 .4-.1.6-.1-.3-.1-.4-.1-.7 0l-.1-.1c0-.1.3-.1.3-.1-.1-.1-.2-.2-.2-.3.4.3.8.3.5-.3.1.1.2.2.3.4 0 0 0-.3.1-.3.1.1.3.2.5.2-.1 0-.3 0-.4-.1.4.6.9.3 1-.2-.2 0-.2 0-.4-.1-.1.1 0 .2 0 .3-.1-.4-.1-.5 0-.8.2.2.4.1.6.4.1-.1.1-.2.2-.4-.1 0-.3-.1-.4-.1l.1-.2c-.3 0-.2 0-.4-.2.2.1.1.1.4.1l-.5-.5c-.1 0 .2.2.2.1s-.1-.2-.1-.2l.6.6c.1-.1.2-.5.2-.5-.2-.1-.4-.3-.6-.3h.5v-.1c-.4 0-.4-.1-.6-.2.2-.1 0-.1.2-.3-.1.1.2 0 .3 0 0-.1-.1 0-.1-.1.4 0 .4 0 .7.3.1-.4.1-.4 0-.7-.1 0-.1.1-.2.1-.2-.2-.2-.2-.1-.4.1 0 .2 0 .3.1-.2-.2-.3-.5-.4-.7h.1c.1.1 0 .1.2.2.3-.6 1.4-2.6.2-1.9 0-.1 0-.1-.1-.2.3-.2 1 0 1.1-.2.1-.3-.5-.3-.9-.3.7-.2 1.4 0 1.7-.5.7-1.3-.9-.8-1.2-.7 0 0-.1.2-.1.3v-.4c-.4.6-1.3.8-1.8 1.3.2-.5 1.1-.8 1.3-1.3.4-1.1-.6 0-1.2-.1.9-.5-.1-.9-.7-.5-.1 0-.5.2-.7.3 0-.3.2-.5.7-.5 0 0-.1-.1-.2-.1.5-.1 1.7.2 2 0 1.1-.5-.2-.7-.8-.8l.1.1s-.1-.1 0-.2c1.1-.3-1.2-.4-1.4-.1-.4-.1-.2-.2-.6.1 0 0 .1-.2 0-.2-.2.1-.1.1-.3.3.2-.5.7-.3.8-.7 0 .2 1.1.3 1.5.1C40.7 1 39.4.5 39 1c-.4-.2-.3 0-.4.3-.1.1-.2 0-.3 0 .1.1.1.2.2.4-.2-.1-.3-.2-.4-.3 0 .1.1.3 0 .4-.1-.4-.2-.2-.3-.3 0-.2-.1-.3-.1-.3-.2 0-.5.2-.5.2v.5c.5.1.4.5.8.9-.4-.3-.6-1.2-1-.6-.2-.2-.3-.1-.5-.2 0 .5.1 1.2.5 1.5l-.4-.2c-.6.3-.4-.5-.6-.9-.3-.8-.5.4-.4.7-.1 0-.3 0-.4-.1 0 0 .1.2 0 .2 0-.1-.3-.3-.3-.5-.1.2-.4.4-.5.6.2-.4.8-1.3 0-1.2 0 .1.1.1.1.2 0 0-.1-.2-.2-.2 0 .1-.1.2-.2.2-.6-.5-1.1 0-.8.7-.2-1.3-.5-.3-.8 0-.3.3-.6-.1-.6.6v-.5c-.3.3-.9.4-1 .7-.1.4.1.6.6.3v.1c-.1.1-.2.1-.3.1 0 0 .1.2.2.1-.7.5-.6.5-1.6.7-.3 0-1 .3-1.3.4 0 .1.1 0 .1.1 0 0-.2 0-.2.1.2.3.2.3.3.5.2-.2.3-.2.4-.2l-.2.2c.1.1.1 0 .3 0l-.2.1c.4.1.1.2.3-.1.4 0 .6.2.5.5-.2-.1-.5-.1-.7-.1.2.1.4.2.6.2-.5-.1-1.5-.4-1.1.2.1-.1.1-.2.2-.2.1.2 0 .2.2.4-.5.2-.4.5.1.8 0-.1.1-.3.1-.4l.1.2.2-.1s-.1.1-.1.2c.1 0 .1-.2.1-.2.2.1.1.1.3 0 .1.1-.1.2 0 .2.9-.7 1.9 1.5 1.3 2 .1 0 .2-.1.3-.1-.1.5.1.7-.2 1 .3.3.2.5-.2.6 0 .1.2 0 .2 0v.1l-.3.3c.2 0 .2 0 .4-.1-.8.4-.2.9 0 .3 0 .1.1-.2.1-.4v.5c.1 0 .2-.2.3-.2l-.2.2c.1.1.3 0 .4 0-.1.1-.3.2-.4.2.1.1.2 0 .3 0-.1.1-.2.1-.3.2.2-.1.1-.2.3 0-.1 0-.1 0-.2.1.2.1.2 0 .3.1-.1 0-.2-.1-.3-.1 0 .1.1.2.2.2l-.1-.1c0 .1.1.2.2.2h-.2c.1.1.1.1.2.1-1.4-.9-1 .4 0 .3-.1.1 0 .1-.2.3 0 0 .2 0 .1.1 0 0-.2.1-.3.2.1.1.2 0 .2.1h-.1c.1.1.1 0 .1.1-.2-.1-.2-.1-.3-.2v.3c-.2 0-.4.2-.7.2.3 0 .2.1.6 0 0 0 .1.3.1.4-.2-.1-.4-.1-.6-.3 0 0 .1.1 0 .1-.1-.1-.2-.1-.3-.2.1 0 .2.2.3.2-.4.1-.2 0-.5.2.4-.1.6-.2.8-.2l-.1.1h.3c0 .1-.2 0-.3.1l.3.2c-.4-.2-.9-.3-1.2.1h.6-.6s0 .1.1.1H30c.1 0 .3 0 .4.1v.1h-.2c0 .1.1 0 .1.1H30c0 .1.1 0 .2.1-.3.2-.2-.1-.3.2.3-.1.7-.3.9-.4-.3.2-.6.3-.9.5h.5c-.1.1-.3.1-.4.2.1.1.2.1.1.2.2-.1.4-.1.5-.1-.3 0-.4.1-.6.3.2.1 0 0 .1.2.1 0 .1-.1.3-.1-.3.3-.1.2-.3.4l.3-.3h.3v.3l-.2-.1h-.1c0 .1.2.1.1.2-.2 0-.3 0-.4.1h.4c-.1 0-.3.1-.4.1 0 0 0 .2.1.1 0-.1-.2.1-.2.1h.3c-.1.1-.1.1-.2 0 0 .1.1 0 .1 0s-.1 0-.2.1h.3c-.1 0-.2 0-.2.1h.2c0 .1-.1.1-.1.2h.2c0 .1-.1.2-.2.3.2.1.1 0 .1.3.1 0 .1-.1.2-.1l-.2.2h.2l-.2.2h.3c-.1.2-.1 0-.1.2.2.2.1 0 .2.2.2-.1.5-.2.7-.3.1.1-.1.2-.1.2.1 0 .2-.2.3-.2-.1.1-.1.2-.2.2 0 0 .2-.1.2 0-.1.1-.2.1-.2.2.1 0 .1-.1.1 0l.1-.1s-.1.1 0 .1.1-.1.2-.1c0 .1-.1.2-.1.3.1-.1.1-.2.2-.2-.1.1-.1.2-.1.3l.2-.2s0 .2.3.2l.1-.1c-.1-.1-.1-.1-.3-.2h.4-.2.1l-.2-.2h.3c-.1 0-.2-.1-.3-.1h.2c0-.1-.1-.1-.1-.1.2-.1.1 0 .2-.1l-.1-.1c.2-.2.4.1.1-.4.1 0 .2.1.3.1l-.3-.3c.2 0 .3-.1.5 0l-.2-.2c.1 0 .1.2.2.1 0-.1-.1-.1-.1-.2.1 0 .2.1.2.1l-.1-.2v-.1h.3s-.2-.1-.3-.1c.1 0 .1 0 .3.1 0-.1 0-.3.1-.3-.1 0-.2 0-.3-.1.1-.1.2 0 .3 0-.1-.2-.1-.3-.1-.5.2 0 .9-.1.9-.5 0 0 .2-.1.2-.2l.1.1c-.1.2 0 .1 0 .3 0 0 0-.2.1-.2.2.2 0 .2.2.1s.2.1.2-.2c.4.1 1.5-.9 1.2-1.4 1.2.9 2.8.4 3.1 0z"/><path d="M31.6 12.6c.2-.1.2-.2 0 0zM31.8 12.2c-.2.1-.2.1 0 0zM31.9 13s.1 0 0 0zM30.6 15.6c-.1 0 0 0 0 0zM30.7 15.7s0-.1 0 0zM31 17.3c.2-.2 0 0 0 0zM31.5 14.4s-.2-.1 0 0zM31 17.2c.1-.2 0 .1 0 0zM30.9 13.4c.1.2 0 .4.4.3-.1.1-.1.1-.3.1.7.4.8-.4 0-.7 0 .2-.1.3-.1.3zM30.8 15.6c0 .1-.2-.1 0 0zM30.8 15s-.2 0 0 0zM24.1 13.8c-1.7 1.3 1.5 0 0 0zM24.2 12.4c-.1.1-.1.1 0 0zM24.6 17.7s.3 0 0-.1c-.2 0 0 0 0 .1zM22.7 16.6c-.1 0-.1 0 0 0zM24.2 13.2c0-.1.3-.2 0-.2-.1.1 0 .2 0 .2zM22.7 16.9c.1.1.1.2.2.2-.1-.3-.2-.2-.2-.2zM23.5 17.6c-.5-.1.2.1 0 0zM25.2 19.1c-.1.1-.2.1-.2.2.2 0 .1-.2.2-.2zM24.7 13.7c0-.1 0-.1 0 0zM24.6 14s-.1.2.2.2c0-.2-.1-.2-.2-.2zM24 12.7l-.1.1c.1 0 .1-.1.1-.1zM24.8 13.8c-.1-.1 0 0 0 0zM23.5 12.5s-.2-.1-.1.2c.2-.1.1-.2.1-.2zM23.8 13c-.2.1-.3.1-.4.3.3-.2.5-.5.4-.3zM23.5 13.5c-.1-.1 0 0 0 0zM27.6 26.2zM27.5 26.6v-.2c-.1.1 0 .1 0 .2zM28.4 26c.1 0 .2 0 0 0zM27.5 26.7s.1-.1 0 0z"/><path d="M28.4 25.6c.1-.1.2 0 .2-.2-.3-.1-.1 0-.2.2-.1-.1-.1-.3 0-.3l-.4.2.1-.2c-.1 0 0 .1-.1.1 0 0-.1 0-.2-.1 0 0 .1-.1.1-.2h-.1c.1-.1.2-.1.3-.2-.2.1-.2 0-.2-.1l-.3.3c.1-.2.2-.4.4-.7 0 0 .1 0 0-.1.2-.1.1 0 .2-.1-.8.1-.9 1-1.4 1.4 0-.1 0-.1 0 0v-.1l-.2.2h.3c-.4.3-.5.5 0 .4.3.2.6.2.8 0 0 .1 0 .1 0 0 .1.1-.1 0 0 .1l-.1.1h.5c-.2.1-.3.2-.5.3.3 0 .5-.1.6-.4 0 .1.1.3 0 .5l.2-.2h.1c0 .1-.1.1-.1.3.2-.2.3-.2.3-.6 0 0-.1.2-.2.2 0-.1.1-.2.1-.3-.1.1-.2.2-.3.2l-.1-.2c-.1.1.3-.1.1 0 0 .1.1-.2.2-.4-.1.1-.2.1-.3.2v-.1c.3-.2.2-.1.2-.2zM24.6 13.5c0 .1-.1.2 0 .3.1-.1 0-.2 0-.3zM31.3-.2c-.1 0-.1 0 0 0zM26.3.8s.2.1.4-.1c-.1.1.1.1.1.1-.1.1-.3.1-.4.2v.1c.3-.1.6-.1.7-.1-.2.1-.4.1-.6.1-.1 0 .2.1.2.1-.8.1.5.4 1 .2-.3.3-1.4 0-1.3.4.2.5 1.1-.2 1.7 0-1.5-.4-1.2 1.1-.3.3-.1 0-.1 0-.1.1.1 0 .3-.1.4 0-.2.1-.3.2-.5.3.8.3 1.3-.4 1.9-.6-.3.1-.5.4-.8.6.2 0 .4.1.6.2-.3-.1-.6 0-1 0 .1 0 .2.1.3.1-.6-.1-1.8-.2-1 .6 0 0-.2 0-.2.1-.2-.4-1.4-1.5-.9-.4l-.2-.1h-.1c.1.3.1.7.1.8 0 .1 0 .1-.1.2l-.1-.2c.1.4.3.5.7.3-.2.3 0 .1-.4.2l.1.1c-.1 0-.1 0-.1.1-.5-.9-1.4-.2-1.6.3.3 0 .2.1.5-.1 0 .1-.2.1-.1.2.2-.1.4-.2.6-.4-.1.3-.2.5-.2.5-.1 0-.3.1-.3.1.1.1.1 0 .2 0-.1.1-.2.1-.2.3l.2-.1c0 .1-.1.1-.1.2.4 0 .5 0 .8-.4-.3.5-1.1.9-1.1.2 0-.6-.8-.2-.3.2 0 .1-.2.1.1.2-.5-.1-1.2-.1-1.2.6 0 0 .2-.1.1-.1 0 0-.1.1 0 .1 0-.1.1-.2.2-.3 0 .1-.1.3-.1.4 0 0 .2.1.2 0 0 0 0-.2.1-.2.1.1-.1.2 0 .3 0-.1.1-.2.1-.3 0 .4.1.3.5.5v-.4c.1 0 0 .2.1.2.2-.1.1-.1.2-.3-.1.3-.1.5-.1.6 0-.1.2-.3.2-.4 0 .6 0 .4.1-.1.2.4.2.4.2.7 0 0 .1 0 .1.1.3-.1.4-.1.7-.3.1 0 0 .2 0 .2.2-.2.3-.2.4-.6-.1 0-.2.1-.3.1.1-.1 0-.2.1-.4 0 0-.4 0-.3.1-.2-.1 0-.2-.4-.1.1-.1.1-.1 0-.2h.2c0-.2 0-.2.1-.4 0 .8.9.5 1 .2.2-.1.6-.2.9-.3-.1 0-.2-.1-.3-.2.3.2.6.2.2-.2.5.1.7-.1.2-.3 0-.1.2-.1.2-.1-.3-.1-.4-.2-.6-.3.2.1.3.1.6.2-.1-.1-.2-.1-.4-.2.3.1.4.2.7.4 0-.4-.4-.5-.7-.6.2 0 .1 0 .2-.1.1 0 .2.1.3.2-.1-.1-.2-.2-.3-.2.3.2 1.3.4.6-.1.3.2.8.4.8.1.1-.1.2 0 .3-.1-.1 0-.2-.1-.4-.1 0 0 .2-.1.1-.1.3 0 .5.2.4-.3.2.2 1.7-.4 2-.9-.4.1-1.1.2-1.4.1.3 0 .8-.1 1.1-.3-.1 0-.4-.1-.5-.2h.2c0-.1-.1-.2-.1-.2.3.2.4.2.7.2 0 0-.2-.1-.1-.1.8.3 1.9-.9 1.1-.8.1-.2.1-.4.2-.6-.1 0-.1.1-.3.1V.5c-.1 0-.1.1-.1.1-.1 0 0-.1 0-.2l-.8.2c.3 0 .4-.2.7-.3-.2-.1-.4-.3-.4-.3h-.3c-.1-.1.1-.1.1-.2-.3 0-.2-.1-.5 0-.1-.1 0-.2 0-.2-.1.1-.4.1-.6.2-.1-.8-.9-.2-.9 0 0-.1.1-.2.1-.3-.2 0-.1.2-.2-.1l-.1.1c-.2-.3 0-.1-.3-.1l.1.1s0 .2.1.3h-.1c-.2-.2-.1 0-.2 0-.1-.3-.1-.3-.2-.5V0c0 .2-.1 0-.2-.1 0 .1.1.2.1.3l-.6.3c-.1-.6-.3-.6-.7-.3.1.2.1.5.2.6.1.1-.1-.3-.1 0V.6c-.1 0 0 .2-.1.2-.1-.1-.1-.3-.1-.3s-.1.3-.2.3c0-.1-.2-.4-.2-.5-.1.1-.1.2-.2.3V.5l-.1.2V.4c-.3 0-.6.2-.7.4zM28 24.7c.1 0 .1 0 0 0zM26.1 18.6l.1.2c.2-.3 0-.2-.1-.2zM26.3 18.5c-.1-.1-.1-.2 0 0zM26.6 16.6c.1.2 0 0 0 0zM26.5 18c0 .2 0 .1 0 0z"/><path d="M28.3 15.6c0-.1-.1-.3-.2-.4-.2.1 0 .1-.1.2l-.1-.1s-.1.1-.1.2l.1-.2c-.1 0-.1.2-.2.2l.3-.3s-.2.2-.3.2c0-.1 0-.1.1-.1h-.3.2s-.1-.2-.1-.3c0 0-.2.1-.2 0 0 0 .1-.2.1-.3l-.3.3c0-.1.1-.2.1-.3l-.3.3c0-.1.1-.2.1-.3-.1 0-.1.1-.1.1-.1-.1-.1-.3-.1-.3h-.2c.1 0 .1-.1.3-.1v-.1h-.3c0-.1-.1-.1-.3-.2 0-.1.2 0 .2 0-.1 0-.2-.1-.3-.2.1 0 .3.1.5.1 0 0-.1-.2-.2-.2h.2-.3c.1-.1.2 0 .3-.1 0 0-.1 0-.2-.1.2.1.4.1.6.2-.3-.2-.3-.3-.7-.4.5 0 .7-.1.5-.5-.2.2-.4.2-.7.4.2-.1.3-.2.5-.3-.2.1-.3.1-.5.2 0 0 .3-.2 0-.1.3 0 .6-.2.7-.2-.2-.4 0-.4-.5-.2 0-.1.2-.2.2-.2-.2.2-.4.3-.6.5 0-.1.2-.2.2-.3-.1.1-.1.2-.2.2.2-.2.4-.4.5-.6-.1.1-.1.2-.2.3 0 0-.3-.1-.5 0 .1-.3.1 0 0-.2.4-.1.7-.2.3-.7-.1.2-.3.4-.4.6 0-.1.1-.2.1-.2V12c-.1 0-.1.2-.2.2.1-.1.2-.3.2-.4-.1.1-.2.2-.3.2.1-.1.1-.2.3-.4-.2.1-.3.2-.6.4.2-.2.1-.2.3-.3l-.2.1c.1-.1.2-.1 0-.1.2-.1.2-.2.4-.3-.2.1-.4.1-.6.3l.3-.3c0-.1-.3 0-.3 0 .8-.3-.1-.8-.6-.5l.3.3c-.2-.1-.3-.2-.4-.3v.3c0-.1 0-.1-.1-.2-.1.1-.1.1-.1.2h-.1c.1-.2.1-.3.2-.4-.2 0 0 .2-.2 0v.2c-.1 0 0-.2-.1-.1l-.3.3c.1-.2.1-.2.3-.5-.1 0-.2.1-.3.2 1-.7-.1-1.7-.3-.9-.3-.2 0-.1-.3-.1-.1-.2.1 0-.1-.1 0 .1.1.2.2.3-.2-.1-.3-.1-.5-.1l.3.3c-.5-.4-.7.1-.2.3-.1.1-.1.1-.2.3-.1 0 0-.1-.1-.2-.1.1-.1.2-.2.2.2.4.2.7-.1 1.1.1-.3 0-.2-.1-.3 0 0 .3-.1.2 0-.3-.5.5-2.3.9-2.2-.9-.4-1.7.7-1.9 1.1-.7.5-.3.9.3 1.2-.2-.1-.5-.1-.7-.2 0 .2.1.6.1.6.2.1.2.1.4 0 .2.1 0 .1.3 0-.1.4.1.4.4.2-.1.3.3.4.7.5-.1-.1-.2-.3-.3-.4.2.2.4.4.6.5 0-.1-.1-.2-.1-.2.7.5.8-.2.7-.3 0-.1 0-.2.1-.2.2.3 0 .2.3.4 0 .2-.1.3-.2.5.1 0 .2-.1.3 0 0 .1-.2.1-.2.1.3.3.3.5 0 .7l.6-.2c-.1.1-.1.1-.1.2.1 0 .1.1.1.2.1 0 .1-.2.1-.2.1.2.1.1 0 .3.2 0 .2 0 .2.2 0 0 0-.1.1-.1 0 .5-.3.9-.4 1.1-.6.1-.7.5-.6.9 0 0 0-.1-.1-.2-.3.3-.7.2-1-.1-.4.4-.2 1.3.3.7.4.1.1.1.5 0 0 .1-.1.2-.1.2.1-.1.1-.1.2-.1 0 0-.1.1 0 .1l.1-.2c0 .3.1.4.2.4v.2s0-.1.1-.1c0 .2.1.1.2.2-.1.1-.2.1-.3.1.2.2.4.4.7.5.1.3.5.5 1 .7 0-.5-.4-.6-.6-1.3h.1l.3.3s-.1-.2 0-.2c.1.1.2.3.3.4v-.3c.1.1 0 .2.1.3v-.1c.1.2.1.1.2.2 0 .1.1.2.1.3 0-.1-.1-.2-.1-.3 0-.1.1.1.2.1v-.6c0 .1.1.3.1.4v-.8h-.2c0-.1.1-.1.1-.2-.1 0 0 .1-.2.1 0-.1.1-.1 0-.2 0 0 0 .1-.1.1 0-.3-.1-.3-.1-.6 0-.4-.1-.4-.2-.4.2-.3.2-.3-.1-.5l.6.3c0-.1-.1-.2-.2-.3 0 0 .1.2.2.1 0-.1 0 0 0 0 0-.1-.1-.1-.1-.2.2.1.1 0 .2 0 .2.4 0 .3.4.2 0 .1-.1.2-.2.3.2-.1.3-.1.5-.2l-.4.4h.2c-.1.2-.1-.1 0 .1l-.1.1c0 .1.1 0 .2 0-.1.1-.1 0-.1.2l.1-.1c.1.2 0 .2.2.3.1-.3.1-.4.2-.7l.2.2V16c.1 0 .1.1.1.1 0-.2-.1-.1-.1-.3.1 0 .1.1.2.1 0-.1-.1-.2-.2-.2.1 0 .1.1.1-.1.2.1.1.1.3.1h-.2c0-.2.1 0 0-.1.3-.2.3-.1.4 0z"/><path d="M26.8 17.3c0 .2-.1.4 0 0zM26.7 16.9c.1 0 0 0 0 0zM23.4 13.6c.1.2 0 .1 0 0zM11.4 7.8c.1.1.2.4.1.8.2-.1.4-.1.6-.3v.2c.4-.1.6-.4.8-.7.1 0 1.6-.3 1.8-.5.4-.3.3-1.4-.4-.8l.1-.2h-.2c-.3-1.2-1.9.2-2 .9 0 0-.3-.1-.2-.1-.2.3-.6.5-.6.7zM14.6 4.2c0-.1-.1-.2 0 0zM10.5 9.4c0-.1 0-.1 0 0zM7.2 8.9c-.1 0-.1 0 0 0zM9.9 8.7c-.1 0-.2-.1 0 0zM18.1 3.2c0-.1.3-.1.2-.4-.4 0-.2.2-.2.4zM17.8 3.8s-.1-.1 0 0zM17.5 5.6c-.1-.1-.3 0-.1-.3 0 0-.2 0-.2-.1.3-.2.2-.4-.2-.5-.1-.3.1-.3-.4-.3l.2.2c-.4-.1-.2 0-.6.1.1 0 .3.1.4.2-.4 0-.4.1-.7.2.2 0 .3.1.5.1-.8 0-1 .3-.4.6.1 0 .1-.1.1-.1h.6c0 .1-.1.1-.2.2.4 0 .6.1.8 0-.3.1-2 .3-.8.6.4.1 1-.2 1.3-.3.2.2 0 .1.3.1.7.7 1.4-1.4.6-.5-.1 0 .1-.2.1-.2.1 0-.5.1-.4.1 0-.1.1-.2.3-.3 0 0-.2-.1-.2 0 .2-.2.3-.5.4-.8-.7 0-.8.8-.8 1.2-.3 0-.5-.1-.6-.2zM3.3 21.5c0-.1 0-.1 0 0zM14.8 4c0 .1-.1.1-.2.2.3 0 .2.1.4.2.1-.2.1-.1.3-.2-.1.1-.1.3-.1.4.1-.1.3-.1.5-.4v.3c.2-.4.4-.6.8-.7-.2.2-.2.5-.3.7.4-.1.6-.3.9-.7.1 0 0 .1.1.1.2-.2.2-.4.2-.7 0 0-.2.3-.1.2-.1-.1-.1 0-.1 0-.5-.5-2.4.4-2.4.6zM17.3 4c.1 0 0 .2.3.1-.1-.1-.2 0-.3-.1zM2.9 20.2c-.1 0 0 0 0 0zM2.9 20.6s0-.1 0 0zM7 9.5c.2-.1.4-.2.6-.4-.1 0 0 .1-.1-.1-.2 0-.2.1-.3.2 0 0 0-.1-.1-.1-.1.1-.1.2-.1.4zM3.1 21.1s0 .1 0 0zM3.3 20.9s-.2 0 0 0zM3.1 21.3c.1 0 .1.1.1.2 0-.1.1-.1.1-.2-.1-.1-.3-.1-.2 0zM6.8 9.5s.2 0 .1-.3c-.2 0 0 .1-.1.3zM6.1 8.6c0 .1 0-.2 0 0zM6.7 9.7c.2 0 .1.3.2.1-.1-.2-.1-.1-.3-.3.1.1.1.1.1.2zM6.7 9.5c-.1-.4-.1-.1 0 0 0 0 0-.1 0 0zM7.1 9zM23.6 5.2c.3.4.2.3 0 0zM23.9 4.2c.1.2.1.4.4.3.2.1 0 .2.1.2.1-.2.2-.4.2-.6-.1.2-.1.4-.1.7.1-.1.2-.3.3-.4 0 0-.1.3 0 .2.1-.3.2-.4.4-.7-.1.2-.1.4-.1.6.1-.2.3-.4.4-.5v.2c.4 0 .7-.3.6-.7 0 .1-.1.2-.2.2-.2-.4.2-.1-.3-.3.4-.4.4-.5.6-.8 0-.1-.1.1-.2 0 .1-.2.2-.2.2-.4-.1.1-.2.3-.3.4v-.5s-.2 0-.2.1c-.1-.6.2-1.4-.5-1.3 0 .1 0 .1-.1.2.1 0 .2.1.4.1-.2.1-.1.1-.4.1-.1 0-.4.3-.2.6-.4-.1-.2.1-.4.1-.1 0-.2-.1-.3-.2 0 .1.1.5.1.4.2.1.2.1.4.1-.2 0-.2.1-.6-.1-.1.4-.3.4.1.6-.5.1-.3.1-.4.4l.2-.1c0 .1-.1.2-.1.2.1 0 .1-.1.2-.1.1.1.2.1.5.3h-.4c.1.1.3.1.4.1-.5-.2-.9-.2-.9.3 0-.1 0-.1-.1-.1.4.2.2.1.5.3-.3 0-.2.1-.2.1z"/><path d="M24.9 1.6c0 .1-.1-.2 0 0zM22.5 4c-.1.2.1.1 0 .5.3.1.6 0 .6-.3.5-.5-.5-1.2-.6-.2zM23.4 2.1s0 .1.1.2c.2-.3.1-.3.1-.5-.3.1-.2.2-.2.3zM25.3 5.6c-.1-.2 0 0 0 0zM24.9 4.6c.1-.1-.3.1 0 0zM28.6 4.9c-.2 0-.1 0 0 0zM21 3.4h.5c.1.2 0 1 .5.8.4-.2.5-1 .3-1.2.1-.4.1-.5-.3-.2.2-.4 0-.6-.4-.7-.1.1-.2.2-.3.4 0 .1.1-.1.2 0-.1.1-.2.1-.2.3.1 0 .2-.1.3-.2 0 .1-.1.2-.1.3.1.1.1 0 .2.1l-.2.1c.1 0 0 .2 0 .2-.6-.4-.4-.1-.5.1zM25.8 4.1c0-.3 0-.1 0 0zM21 5.2c.1.2.1.1 0 0zM21.2 4.3c.1-.2 0-.5 0 0zM20.1 4.5c.1-.3.2-.4.1-.7-.2.3-.1.5-.1.7zM20.2 4.6s-.2 0 0 0zM18.9 2.7c.2 0 .3 0 .3.2l.1-.1c.8 1.1.3-1.5-.4-.1zM19.8 5c0 .6.2.3 0 0zM18.2 3.3c-.1.7.7.6.7.2.1-.1.3-.2.5-.3-.4-.2-.9-.2-1.2.1zM21.3 3.6s-.2-.1 0 0zM20.6 5.3c.1 0 .2 0 .4-.1-.3 0-.5.1-.4.1z"/><path d="M20.2 5.5c0 .1-.2.1 0 .2-.1.2-.2.2-.2.5V6c-.2.1-.1.2-.3.2.2.1.6.2 1 .2-.1 0-.3.1-.4.1h.1-.3c0 .1.1.1.1.2-.1.2-.2.1.2.1.1.1.1.2.4 0 .1 0 0 .1.1.2.1-.2 0-.1 0-.2.1-.1.3-.1.3-.1.1-.4.7-.9.4-1.3-.1.1-.2.1-.3.3-.2-.5-.3-.4-.3.1h-.1c0 .2.1.2 0 .4-.4-.3-.6-.6-.7-.7zM24.4 19.9c0-.1 0 0 0 0zM20 22.9c-.1-.2 0 .1 0 0zM20 23.6c.1-.1 0 0 0 0zM21 17.4c.1-.4-.6-.2-.6.3.2-.1.3-.2.6-.3zM20.9 21.3c-.1 0-.1 0 0 0zM20.8 21.1s-.1 0 0 0zM24.5 20c-.1-.2 0-.1 0 0zM20.9 15c0 .1-.1.2-.1.3.1-.2.1-.2.1-.3zM21.6 14.9c-.1 0-.1-.1 0 0zM19.5 23.1s.2.1.3 0c-.4-.2-.1-.1-.4 0h.1zM21.2 15c0-.1-.1 0 0 .2h.1s-.1-.1-.1-.2zM20.6 21.1l-.2.2c.1 0 .1-.1.2-.2zM20.2 12.4c-.1-.2-.1-.1 0 0z"/><path d="M20.7 21.4s.2-.1 0-.3c-.1.1-.1.2-.2.2l.1-.2c-.1.1-.2.2-.2.3l.1-.1s0 .1-.1.1c.2 0 .6-.2.3 0zm-.1 0c-.2 0 .3-.1 0 0zM20.2 12.3c.1.1 0 0 0 0zM3.5 21.8s-.1 0 0 0zM20 11.9c.1 0 .1 0 0 0zM21.7 16.6c-.1 0-.1-.2-.4-.2.3-.4-.2-.8-.5-1.1-.1 0-.1.1-.1.2 0-.2-.1-.3 0-.5-.5.4-.7 1.1-.9 1.5.4-.2.2.1.3.3.5-.1.7-.4 1-.6 0 .2.1.1.1.4.2.3.4.2.5 0zM22.5 17c-.1 0-.2-.1-.3-.1.2.5.2.2.3.1zM21.8 17.6c-.3 0-.4 0-.3.5.1-.2.2-.3.3-.5zM22.2 17.5c.1 0 .2 0 0 0zM24.4 19.9c0-.1 0-.1 0 0zM3 21.3c.1.3.1.2 0 0zM3.3 21.9c-.1.1-.2.1 0 0zM3.2 21.5c-.1.1 0 0 0 0zM28.4 25.2s0 .1 0 0zM3.2 21.8c.1.1 0 0 0 0zM3.1 22.1c.2.2 0 0 0 0zM3.6 22.9c-.1 0-.2-.1 0 0zM3.8 23.1c.2.2 0 0 0 0zM3.4 22.7c.1 0 .1 0 0 0zM3.4 22.9c-.2-.2-.3-.3-.5-.3.1.2.2.1.3.2-.3.3-.2.2.1.4-.1.1-.1.1-.1.2.1 0 .1-.1.2-.1.1.3 0 .4.4.5 0 .2 0 .2.4.4-.1-.6-.3-1.1-.8-1.3z"/><path d="M4.1 23.5c-.2-.2 0-.1 0 0zM25.4 26.7c-.3-.1-.5 0-.6-.3l-.2.1c.3.3.5.4.8.2zM25.5 25.4c.1 0 .1.1.3 0-.2-.3-.5-.4-.9-.4.2.2.4.3.6.4zM3 21.2s.1-.2 0 0zM3.6 22.8c-.1 0-.2 0 0 0zM25.6 26.3c0-.1.1-.2 0 0zM2.9 20.7s0 .2.1.3c0-.1 0-.2-.1-.3zM2.7 20.8c.1.1.1.2.2.3 0-.2-.1-.3-.2-.3zM2.4 20.5c0 .1-.1.2-.2.2 0 0 0-.1-.1-.1 0 0 .2-.1.3-.1-.2-.1-.3 0-.3-.2-.1.3-.1.3 0 .6-.2.1-.1.4.2.8V21h-.2c.2-.2.3-.6.3-.5zM25.6 27c.2 0 .3.1.6-.1v-.1c-.1-.1-.1.1-.2.1v-.5c-.2.2-.3.4-.4.6zM19.6 5.6c.2 0 .3.2.5-.1-.4-.1-.4.1-.5.1zM14 12.3c0 .1 0 .1 0 0zM22.8 12.7c.1 0 .1 0 0 0zM14.9 4.5c.1-.1.1 0 0 0zM14 12.1c-.1 0 0 0 0 0zM14.2 12.5c0 .2 0 .1 0 0zM15.3 5c.2 0 .5-.2.7-.4-.4 0-.7.2-.7.4zM14.3 12c-.1 0-.2 0 0 0zM16.5 12.1c-.1.2-.1.1 0 0zM14 12.4c-.1-.1 0 0 0 0zM14.1 12.8c.1-.1-.1.4 0 0zM19.5 5.8c.2 0 .3.1.4 0-.1-.1-.3 0-.4 0zM17.1 7.6c0 .1-.1-.1 0 0zM19.5 6c.2 0 .3 0 .5-.1-.2 0-.4.1-.5.1zM19.9 6.3c0 .1 0 .1 0 0zM19.7 7.9c0 .1 0 .2.5.1-.2-.2-.3-.1-.5-.1zM17.5 8.5c1.5-.7-.9-1.4 0 0zM18.9 6.5c.1-.1.3.1.3-.3-.3.1-.3.3-.3.3zM17.8 10.6c0 .2 0 .3 0 0zM18.6 11.9s-.1 0 0 0zM22.6 12.4s0 .1 0 0zM28.2 25.3c.2-.1.1-.1 0 0zM21 13.5c-.2-.1-.1-.1 0 0zM20.8 13.6c.1 0 .2.1 0 0zM22.3 12.3c.1.1.1.1 0 0zM20 8.9c-.2-.1-.2-.1 0 0zM22.9 12.6c-.1.1 0 0 0 0zM22.8 12.7c0-.1-.1-.2 0 0zM21.1 9.4c.4-.3.7-.6 1-.9-.3-.3-1.5-.9-1.3-.1-.1 0-.1-.1-.2-.2-.3.5-.5 1.3-.7 1.6.5.1.8-.3.6-.6.2.1.4.2.6.2zM16.8 11.4c0-.1.1-.1 0 0zM22.5 12.4s-.1-.1 0 0z"/><path d="M19.7 9.5c.1-.1.2-.2.2-.4-.1 0-.2.1-.2.1-.1-.5.2-.2-.3-.4.3-.2.4-.4.5-.5.5-.3-.2-.3-.5-.5 0 0-.1 0-.1.1.1 0 .1.1.1.1-.3.1-.3-.1-.3.4l-.1-.2c.1.2-.1.2.1.3 0 .1 0 .2.1.2 0 0-.2.1-.4.4-.3-1-.5-.1-.5.2 0 .6.5 1.6.7.5.1.6.6-.1.7-.3zM17.2 12.8c0-.1 0-.1 0 0zM17.3 12c-.1-.1 0-.1 0 0zM17 11.6c.1 0 .2-.1 0 0zM17 12.2s.1 0 .2-.1l-.1-.1c-.1 0 0 .1-.1.2zM19.1 10.4s.1-.1 0 0z"/><path d="M17.4 11c-.1-.1-.3-.2-.3-.6 0 0-.1.1 0 .2-.7-.8 1-2.4-.2-2.7-.3.4-.6 1.2-.5 1.5-.1.1-.2.1-.3.1-.1-.6.4-1.1-.1-1.4 0 .1.1.2.1.3 0 .1-.1-.1-.1-.1v.3c-.1-.1-.1 0-.2 0s0-.1 0-.1h-.5c.6-.1.4-.3.1-.6l-.8.1c.4-.2.3-.3.5-.6-.6.1-1.5.4-1.6.7-.3.1-.4.3-.6.5.1.1.1 0 .3.1-.1.1-.1.1-.2.1.3.1.5.1 1 .2h-.3c-.2 0 0 0 0 0-.9-.2-1 .2-.5.6.5.4 1 0 1.2.7-.5-.1-1.9-.8-1.9.1-.1.7 1.1.3.6 1.2.7.1 1.8.2 2.3-.4h.1c0 .1 0 .1-.1.3.1.1.3.1.4.1 0 .1-.1.1-.1.2.5.2 1.2.4 1.2-.3-.1.1-.3 0-.4.2 0-.2 0-.2.1-.4.1 0 0 .2.1.2l.3-.3c.1.1 0 .1.1 0v.3c.1 0 .2-.2.2-.2 0 .1-.1.1-.1.3h.1c.1-.3 0-.4.1-.6zM18.8 12.1c-.1-.1.2-.1 0-.2-.1 0-.1.1-.1.2-.1-.2.1 0 .1 0zM17.8 12.4c.2.2.5.2.8 0-.2-.1 0 0 0-.3-.1 0-.1.1-.1.2 0-.4-.1-.4-.2-.5 0-.1.1-.2 0-.3-.1.2-.2.1-.2.4-.1 0-.1-.1-.1-.1l-.5.5.1-.1.2.2zM21.5 11.9c0 .1-.2.1.1.2.2 0-.1-.2-.1-.2zM21.8 5.2c.1 0 .1 0 0 0zM21.7 5.6c0 .2 0-.1 0 0zM23.6 5.6c-.1-.2-.1-.1 0 0zM21.7 6.4c0 .1-.1.2 0 .2.2-.2 0-.2 0-.2zM24.3 10.3c.1 0 0 0 0 0zM20.9 7.5c.2.2.1.1 0 0zM24.4 10.4c.1 0 .1 0 0 0zM24.8 10.2h.8c0-.5-.4-.8-.9-1-.3.4-.4.8.1 1zM25.6 7.1c-.1.1-.1.1 0 0zM23.3 4.2c.1.2.1.2 0 0zM24.6 10.4zM22.2 8.4c.1.1.1.1 0 0zM26.1 7.2c-.1.1-.2.1-.2.3h.2c-.1-.1 0-.4 0-.3zM21.8 6.3s0-.1 0 0zM27.7 14.8c-.1-.2-.1-.1 0 0zM26.7 13.9c.1 0 .1 0 0 0zM27.1 14.2s.1.1 0 0zM28 15.1c-.1-.1 0 0 0 0zM27 13.1s.1.1 0 0zM28.2 24.2c.1-.1.2-.2 0 0zM26.3 12s-.2-.1-.1.1c.1 0 .2-.2.1-.1zM27.1 13.2c.1 0 .1 0 0 0zM26 11.6c0-.2 0-.2 0 0zM26 11.4c-.1-.2 0 0 0 0zM26.1 11.3c.1.2 0 .1 0 0zM27.2 5.6c0 .1 0 .1 0 0zM23.3 5.9c.1.2 0 .3.2.4.1-.3-.1-.3-.2-.4zM21.6 3.7c-.1 0-.1.1 0 0zM20.9 7.1c.1.2.3.4.6.5.3-.4.2-1-.2-.8-.1 0-.1-.1-.2 0 .2.2 0 .2-.2.3zM21.2 6.7c.1 0 0 0 0 0zM21.2 6.5c0-.2 0 0 0 0zM23.1 4.8c-.9-.4-.6.5.3.2-.2-.1-.2-.1-.3-.2zM19.8 9c.1.1.1.1 0 0zM21 6.7c.1.1.1.1 0 0zM21.1 6.5c0 .1-.1.1 0 0zM20 8.7c-.1 0-.1 0 0 0zM20.4 7.5s-.1-.1 0 0z"/><path d="M21.8 5.4c.1.1 0 .2.2.3 0 .2 0 .1.1.3-.1 0-.1 0-.2.1.3 0 .4.1.7.1.1.8-.7 1-.4 1.6 0 0 .2-.1.2-.2 0 .4 0 .3.4.2v.1l.1-.1c0 .1-.1.2-.1.3.3.1.3.1.5.2.1-.1 0-.1.1-.2v.2c.1 0 .1-.1.1-.1v.1c-.1.1.3-.2.2-.1v.2c.1.1.1-.1.1-.2.2.3.3.3.5-.1-.1.6.8.8.8.1.2.1.1.1.3.1l-.2-.2c1.2-.5-.9-.8-1.4-.8 0 0 .1.1.1.2-.1-.1-.2-.1-.3-.1v-.2l-.1.1c-.2-.1-.1-.1-.2-.3-.1.1-.1.2-.2.2 0-.2-.1-.3-.1-.3l.1-.2h-.4c.1-.2.1-.1.3-.1l-.3-.3s.1 0 0-.1c.2.2.3.1.6.3-.1-.1-.3-.4-.4-.5.1 0 .2.1.2.1-.2-.4-.5-.4-.8-.1.9-.6-.3-.8-.5-.6zM20.9 6.8s-.1 0 0 0zM17 38.1s-.1-.1 0 0zM18.8 38.5c-.2-.1-.4-.2-.7 0 .4.2.7.2.7 0zM20.3 37.8c-.2 0-.2 0 0 0zM20.2 38.3c-.2-.1-.2-.1 0 0zM19.1 37.9c.2 0 .4-.1.6-.2-1-.5-2.8-1.7-4-.7.3.1.7-.3 1.3-.2 0 .1-.1 0-.2.1.8.1 1.2.4 1.8.7-.1.1-.2.2-.2.3.3-.1.5 0 .7 0z"/><path d="M16.5 37.2s.2.1.1-.1c-.1 0-.1 0-.1.1zM19.1 36.4c.1 0 .1-.1 0 0zM18.5 35.8s-.1.1-.1.2c.1-.1.1 0 .1 0 .2 0-.1 0 0-.2zM19 35.7c.1.1.1.2.1.3.2-.2 0-.2-.1-.3zM18.6 36.1c-.1.1-.1.1 0 0zM18.5 36.2zM18.4 35.1c0 .1-.4-.1-.2.1.1 0 .2 0 .3-.1h-.1zM18.9 35.2c-.1 0-.1-.2-.3-.2l.2.4c0 .1.1-.1.1-.2zM18.5 36.4c.1-.2.1-.3 0 0zM18.6 35.8c.2 0 .2 0 0 0zM20.1 37.2c.1 0 .1 0 0 0zM19.7 36.6c.1.1.1.2 0 0zM19.7 36.3s.1-.1 0 0zM20 37.3c.1.1.1.2 0 0zM20.1 36.9c.2 0 .2 0 0 0zM19.4 36c0-.1-.1.1 0 .2.2 0 0 0 0-.2zM19.5 36.6c0 .2 0-.1-.1-.3 0 .2 0 .2.1.3zM19.7 36.9s.2 0 .2-.2l-.2.2zM4.5 24.2s-.2 0 0 .2c-.1 0 0-.1 0-.2zM11.4 34.8c0 .2-.1.2 0 .4v-.4zM21.4 29c-.2 0-.4.1-.6.2v.1c.3-.1.5-.2.6-.3.1.1 0 .1 0 0zM11.5 34.8c.1-.3 0 .1 0 0zM22 28.9c.1 0 .1.1 0 0zM11.5 34.6c.2-.2.2-.2 0 0zM27.5 66.1c-.2-.1-.1 0-.4-.1l-.2.4.2.1c0-.1.1-.2.1-.2.2 0 .2-.1.3-.2zM26.7 66c-.2 0 0 0 0 0zM27 66.1h-.5c0 .1.1.1.2.2-.1.1-.2.1-.2.2.1 0 .1 0 .2.1 0-.2.1-.3.3-.5zM26.9 66c-.2.1 0-.1 0 0zM34.9 67.4c-.1-.1-.1-.2-.3-.2.1.1.4.2.3.2zM26.5 66.3c-.2.1 0 0 0 0zM6.3 35.7c.2.1 0 0 0 0zM11.2 35.8zM11.2 36c.1-.1-.2.1 0 0zM6.4 36c.1-.1.1-.1 0 0zM11.2 35.9s0-.1 0 0z"/><path d="M34.2 47.9c0-1.1-3-2.3-3.5-1.6 0 0 0-.2-.1-.1 0 .1 0 .2-.1.3.3-1-1.8-1.5-1.9 0 0-.2 0-.3.1-.6h-.4c.4 0 .7-.2.8-.6-.4-.1-.7-.1-.9.2-.1 0-.2 0-.3.2 0 0 .1-.2.1-.3-.1.1-.2.2-.2.3.2-.4.7-.7.8-1.1 0-.1-.5-.7-.5-1.1 0 .1 0 .1-.1.2 0-.4-.4-.6-.9-.6-.1-.3-.7-.3-1.1-.1-.4-.3-.2-.3-.6-.3 0-.6-.6-.9-1.2-.8.4-.3-.1-.5-.5-.7.1 0 .3-.1.4-.1-1.4-.2-2 .5-2.9-.5-.1 0-.2.1-.2.2 0 0 .2.1.3.1-.5 0-.7.5-.8.9 0-.5 0-.8.3-1.1-.4-.2-1 .3-1.2.5 0 0-.1-.1 0-.1-.5.1-.9.7-1 1.1-.5-.9-1.4-.2-1.9-.4-.2-.1-.6-.5-.7-.6 0-.1 0-.3.1-.4l-.1.1c.1-.1.1-.3.1-.4 0 .1-.1.1 0 .2.1-.5.5-1.3-.3-1.2l.1-.1h.2c-.7-.2-1.2 0-1.9-.1.3-.3.4-.7.2-.9 0 0 .2-.1.2-.2l.1.2c0-.1.1-.3.2-.4-.3-.2.6-.8 0-.9-1-.2-.9.6-1.6 1.1 0 .1 0 .1-.1.3-.1-.1 0-.1 0-.2-1.2.1-1.9.1-2.2-1.3.1.1.1.1.1.2-.1-.5 0-1.2.1-1.7.2 0 0 .1.1.1.1-.1.1-.3.1-.4-.1.1-.1.1-.1.2.1-.6.3-1.4.6-1.2.4-.2.4-.2.5-.5.1.1.1 0 .2-.1v.2c.8-.2 1.5.2 1.7 0 .1.1.2.1.3.2 0 0 0-.1.1-.1-.3-.3 0-.1-.1-.3h-.2c.2-.2.5-.3.8-.4.2.1.4.1.7.1h-.1c.1 0 .4.1.3 0 0 .1.1.2.2.2.6-.3 1 .3.8.9.1 0 0-.2.1-.1 0 .4 0 .3.2.4-.1.4.3 1.1.6.3.2-.5-.3-1.1-.3-1.7.1-1 1.2-1.5 2.1-1.9h-.3s.2 0 .2-.1c0 0-.1-.1-.2-.1.4 0 .2 0 .4-.2-.1 0 0 .1-.1.1s-.1-.1-.3-.1v-.2c.4 0 .4-.2 0-.5.1 0 .2 0 .2.1.1-.2 0-.1-.1-.4l.1.1c-.1-.1-.2-.4-.3-.5.1.1.1.1.2.3 0-.3.1-.4.2-.7-.1.4 0 .5.1.7-.1.1-.1.2-.1.4.3-.3.3-.8.4-1.2v.4c0-.1.1-.1.1 0 .1-.1.4-.8.3-.7.4-.3.9-.2 1.1-.5.1.1 0 .1.1.2.1 0 .1-.1.2-.2.2 0 .1.1.3-.1-.1 0 0 .1-.2.2-.4-.6.5-1 .8-1.3.2.1.5.1.8-.1-.2-.1-.1-.1-.3-.2.3 0 .2 0 .5-.1 0 0 .2.1.5-.2 0 .1 0 .1.1 0 0 .1-.2.2-.2.2h.5c-.1 0-.3 0-.3.1-.6-.2-1.1.5-.5.6.1 0 1.3-.5 1.6-.6-.1-.1-.1 0-.2-.1 0 0 0-.2-.1-.2-.3.1-.4 0-.7-.1l-.3-.5c.1-.1.2-.3.2-.3-.3 0-.4-.1-.7-.1.5 0 1-.1.7-.4 0 0 0-.2.1 0-1-.6-1.8.7-2.7.9 1.6-.6 1.6-1.8 3.4-1.7.9.1 2.2-.1 2.7-.9h-.2.2s-.2-.1-.3-.2c.3-.1.2-.2.3-.4-.1 0-.2-.2-.2-.2-.1 0-.2.1-.2.1 0-.1 0-.1-.1-.1.2-.5.1 0-.2-.3h.1c-.4.1-.6.2-.9.4 0 0-.1-.3-.1-.4.4.1.2.1.8 0h-.3c.2 0 .6-.2.8-.2-.1 0-.2-.1-.2-.1s.2 0 .1-.1h-.4s.1-.2 0-.2c-.3.2 0 0-.1 0s-.2.1-.3.1c0-.1.1-.1.2-.1h-.2l.1-.1c-.1 0-.1.1-.2.2-.1 0 .1-.1.1-.2-.1.1-.2.1-.3.1.1-.1.2-.1.3-.2 0 0-.1-.1 0-.1l-.1.1c-.2-.3-.1-.2-.5-.4.2-.3.1.1 0-.3.1 0 .2.1.3 0 0 0 0-.1.2-.2-.2-.1-.1-.1-.4-.3.1-.1.2 0 .2-.1-.2-.2-.1 0-.3-.1 0-.1.1-.1.2-.2-.1-.1-.2 0-.3.1.1-.1.2-.2.3-.2-.1 0-.2.1-.3.1v-.1c.1-.1.1 0 .3-.1-.1-.1-.1-.1 0-.2h-.3c.1 0 .2 0 .2-.1-.1-.1-.1 0-.2-.1.1-.2 0-.5 0-.7-.3.3-.3.4-.3.7-.1.1-.3.3-.4.5 0 0 0-.2-.1-.2-.2.3-.4.2-.6.5v-.4c0 .1-.2.3-.3.3.1-.5.2-.5-.2-.6.1.1.1.1.2 0 0-.3-.1-.5-.4-.7.3.1.4 0 .4 0 .1-.2.2-.4.2-.6-.1 0 0 .1-.2.2-.2-.1-.4-.2-.5-.3 0-.1 0-.1-.1-.2 0 0 .2-.1.2 0-.3-.4-.4-.8-1.2-.6.1 0 .1 0 .1-.1-1-.6-.6.5-1.1.9h.2c0 1 0 1.1-.1 1.5-.9-.1-.1 1.3-.3 1.9l.1-.1c0 .1 0 .1.1.2-.2.1-.6.3-.9.5-.4.4-.3.2-.5.6-.2.5-.3 1.3-.1 1.7-.1-.1-.2-.2-.3-.4-.3.3-.2.1-.6.3.3-.6-.2-.5-.3-.9 0-.4.3-.9.4-1.3-1.4.1-1.9-1.8-3.4-1.3.7-.2.7-1.7-.4-.7.5-.4.3-.8.6-1.4.2-.4.7-.7.7-1.1.1 0 .1.1.2.1.1-.2.1-.2.2-.1.1-.1 0-.1 0-.2 0 0 .1.1.2.1 0-.1-.1-.1-.1-.1v-.1c0 .2.1.1.2.1-.1-.2-.1-.3-.2-.5.6.8 1-.2.2-.1v-.1c0 .1.3 0 .2-.1 0 0-.5-.4-.3-.2-.1 0-.1-.1-.1-.2.1 0 .1 0 .1-.1.2.2.5.4.8.6.1-.1 0-.1.1-.2.1 0 0 .2.1.1 0-.1.1-.2.1-.4v.2c0-.1 0-.2.1-.2.2.6.8-.2 1.1-.5-.5-.1-.7-.3-.7-.6-.1 0-.5-.1-.5-.1.6.1.6.6 1 .6.5.1.8-.6.6-.9.4.2.4 0 .6.3v-.2c.1 0 .1.2.2.2-.1-.3-.1-.4-.3-.5.2-.1.3 0 .4 0-.1.2 0 .2 0 .4.7-.3 1-.6 1-1.2l-.2-.2v-.1c.4.1.5.1.4-.2.1-.1.3 0 .3-.2-.1 0-.2-.1-.3-.1.1-.1 0-.1-.1-.2 0 0 .2.1.1 0s0 0 0-.1c-.3-.1-.6-.3-.8-.3 0 .2-.1.4 0 .7-.1 0-.2 0-.3.1 0 .1.1 0 .1.1-.4.1-1 .9-1.1 1-.4-.8.3-1-.1-1.7-.2.4-.3.5-.6.7.1-.3.1-.5 0-.9.1 0 .1 0 .3-.1-.2 0-.2 0-.2-.1-.2 0-.2 0-.4-.1l.3-.3c0-.1-.1-.1-.1 0l.2-.2s.1.1.1.2c-.1-.4.3-2.3-.7-1.5.2.3 0 .1 0 .3v-.2c-.4.3-.4.4-.3.6-.5.3-.5.8-.1.9.1.2.1.2.3.3l-.1.2c-.1 0 0-.1 0-.1-.2.1-.3.2-.4.4h.1c.1 0 .1-.1.2-.1-.2.9-1 .4-1 1.3.1 0 .1-.1.2-.1-.3.2-.3.2-.5.2-.1 0 0 .2-.1.3v-.4c.4.1.1.1.4-.1-.1 0-.1.1-.2.1 0-.2.1-.5.4-.7-.1 0-.2.1-.3.1 0-.2-.1-.2-.1-.4h-.3v.3s0-.1-.1-.1c.1.2.1.4.2.5-.1-.1-.2-.3-.3-.5l.1.3c-.4-.1-.9-.1-1.2-.2-.3-.1-.3-.3-.7-.4.2-.6-.4-1.2-1.1-.5l.2.2c.2-.1.1 0 .3-.2 0 .1 0 .1.1.1.1-.1.2-.1.4-.2-.1.2-.2.3-.4.4-.5-.3-.8.3-.8.9h-.1v-.2c0 .2-.1.4-.1.7-.1-.4-.2-.8 0-1.2 0 0-.1.1-.1.2 0-.3-.1-.3-.1-.6-.6.2-1.2.2-1.7-.3.4-.1 1.2-.7.2-.9 0 .1.1.1.1.2-.8-.7-1.2-1.4-2.2-1.2.3-.3.1-.2.3-.6-.1.1-.2.1-.3.1 0 .1.1.1 0 .2 0 0-.2.1-.3.1 0 .1.1 0 .1.1-.2 0 .1-.7.1-1.2-.1.2-.2.2-.2.4-.1 0-.4.2-.6.2 0-.1.2 0 .1-.2-.3.2-.6.3-.9.5 0-.1 0-.2.1-.2-.4.1-.9.3-.9.5-.1-.6 1.1-.5 1.6-.9 0 0-.1-.1 0-.1-.9.1-1.8.3-2.4 1.2C7.1 8.9 4 7 3.3 7.3c.5-.5.1-.5-.4-.2 0-.2.1-.4.1-.5 0-.3-.1 0 0-.3-.3-.1-.3-.2-.6-.1 0-.1 0-.3.1-.4-.3.2-.3.2-.5.4 0-.1.1-.2 0-.2l-.1.1c.1-.2 0-.1-.1-.2.4-.2.5-.2.4-.5-.4.3-.9.3-1.2.3-.1-.1 0-.1 0-.1-.3.1-.2.1-.2.2-.2.2-.3.2-.4.4 0-.1.1-.2.1-.4H0l.2.1c-.7 0-1 .6-1.6.8-.7.3-1-.1-1.4.4.3.6 0 1.6.5 1.5 0 .1-.1.2.1.2-.2.3-.1.4.4.4 0 0-.2.1-.1.2-.4 0-.6-.2-.5-.7-.1.1-.2.4-.2.5.3.1.2-.1.1.3 0-.2.2-.1 0-.2-.8.6-1-1.2-1.3-.3-.4-.1-.9.1-1.1.1 0 .5.2.8.6.9-.2-.1-.4-.1-.5-.2-.4.8.3.9.8 1-.1-.1.1-.1.1-.1s-.1.1-.1.2c.3-.2.6-.3.9-.4-.2.2-.2.2-.4.3.4.9-1.3.8-1.8 1.4-.1-.1-.1-.1-.2-.1 0 0 .1.1 0 .1-.7-.1-1 .7-.9 1.1.3 0 .4.1.7-.2-.1.1-.2.3-.2.4-.6-.4-.7.2-.6.6.5.2.8-.1 1.1-.4-.4.2-.6 1-.5 1.2-.1.3-.1.3-.3.5.1-.1.4-.1.7-.2.1.2.1.1.1.2s.1.3.1.4c.1-.3.2-.3.4-.4 0 .3-.1.3.5.1-.3.3-.4.5-.5.7-.2.2-.3.2-.4.5-.4.1-1.5.6-1.7 1.1-.3-.4-.9.2-1.1.4.1 0 0-.1.1-.1.2.1-.1.1.2 0 .2 0 .2.1.6-.3v.2c.3-.1.3 0 .7-.3 0 .1-.1.2-.1.2.2-.2.3-.2.6-.4v.1s.1 0 .1-.1 0 0-.1-.1c.4-.2.4-.2.7-.4.3 0 .3-.1.4-.2.5-.3 1.2-.4 1.2-.7.7-.2.1-.9.8-.7.1-.3.3-.1.1-.4.5-.1 1-.5 1.4-.8.2.1 0 .2.4 0-.2.3-.2.3-.3.6-.6-.4-1.1.2-1.1.8 0-.1.1-.1.2-.1-.2.1-.3.2-.5.3 0 .1 0 .2.1.2.2-.1.2-.1.4-.3.2 0 .2 0 .5-.1-.1 0-.1.1-.1.1.1-.1.2-.2.2-.3 0 .1-.1.1 0 .2.3 0 .4-.1.6-.4h-.2c0-.1.2 0 .2-.1l-.1-.1c.2-.1.2-.1.5-.1-.1.2-.1 0-.1.3 0 0 .1-.2.2-.2-.1 0 0 .1 0 .1.2-.1.3-.1.5-.2-.1.1-.2.1-.3.2.1.1.2 0 .2.1-.1 0-.1-.1-.2 0 0 .1.1.1.2.1 0 .1-.1.1-.1.2.4.1.3.1.5.2.2-.1-.1-.1.1-.1-.1.2-.1.2-.2.3.4.1.7.2 1 .2.1.2.1.4.6.2-.2.2-.1.2-.3.3.3.3.1.4.5.1-.3.5 0 .9.3.9-.1-.2 0-.3-.1-.5.1.1.2.1.3.2 0 .3 0 .2.1.3 0 0 0 .2.1.2.1-.3.2-.6.1-.9.2 0-.1.1.2 0-.2.5-.3 1 .3 1.1-.1.2 0 .1-.1.4-.1 0-.1-.1-.1-.1-.1.3 0 .5.2.7 0 0 0 .2.1.3-.2.1-.3.3-.4.4 0-.4 0-.3.2-.4 0 .2-.1.4-.2.6 0 0 .2-.1.2 0-.1.2-.1 0-.2.2.2-.2.3-.4.5-.6-.1.2-.2.3-.2.5l.3-.3s0 .1.1 0c-.2.1-.3.3-.3.3-.4.1-.5.5-.2.9l.3-.3c.1.3.1.2.2.4-.1 0-.2-.1-.3-.1 0 .1.2.4.2.4l-.3.3h.2c-.1.1 0 0 0 .1.1-.1.3-.2.5-.3 0 .1-.1.2-.2.3H4c-.2.1-.2.1-.2.2l-.1-.2c-.2.1-.3.3-.4.4.2-.1.2-.1.4 0l-.4.2h.2c-.1.1-.2 0-.2.1h.3s-.2.1-.2 0h.2-.2c.3.2.4.2.7 0l-.3.3s.3 0 .3-.1c-.1.1.1 0 .3-.2 0 .1-.1.2-.2.3 0 .1.2 0 .2 0-.1.4-.2.2.1.5l-.1-.1c.2.1 0 .1.3 0 0 .5.2 1.1-.3 1.3.1-.1.1-.1.2-.3 0 0-.2.2-.2.1s.2-.1.2-.2c-.1-.1-.5-.2-.6-.3-.1.5 0 .9-.1 1.2.2 0 .3.1.4.2-.7-.5-1.6 3.4-1 4.2v-.2l.2.1s-.2.1-.2 0c0 .1.1.2.1.2-.3.6-.4.4-.4.4 0 .4 0 .7.3 1.2.3.4.5.4.9.8.3.4 1.2 2.5 1.1 2.7H5c.3.3.3.4.6.4.1.2.7 2 1.2 1.6-.1.1-.6-1.2-.6-1.5-.2-.1-.1 0-.2 0-.3-.8-.9-1.4-.8-2.3.9.4 1 2 1.8 2.5-.3.3.4.7.7 1.1.5.7.2 1.2.4 1.7.4.7 2.8 1.7 3.8 1.4h-.1l.2-.1c-.1 0 .2.2.3.2l-.2-.2c.7.5 1.2.8 2.1 1.2h.5c0 .1-.1.1-.1.1.5.5.6.9.9 1.2l-.1-.2c.3.2.5.5.7.7 0 0-.1-.1-.1-.2.2.1.8.2.9.3v.2c.1 0 .2-.1.3-.1-.2-.5.4-.6.7-.4-.1.7.5 1.3.1 2-.2.4-.8 1-1 1.2-.3.3-.4 1.1.1.8.1.1-.1.1 0 0 0 .6-.4.6-.4 1.2 0 .2.6.9.9 1.3.5.7.8 2.1 1.6 2.2.9 1 1.7.8 1.7 2.6 0 1-.2 2.4-.2 3.5 0 .6.2 1 .1 1.5 0 .4-.3.9-.3 1.3s-.1 2.2.7 1.9v.4l-.1-.1c.1.8-.1 1.2-.1 2.1v-.3c-.1-.1-.2.1-.2.1 0-.1.1 0 .1-.2h-.3c0 .2-.1.4 0 .6.1-.1-.1-.1 0-.2h.1c.1.1.2.2.4.2-.1.1 0 .1 0 .3l-.1-.1c.1 0 .2.2.4.1v.1c-.1 0-.2 0-.3.1 0 0 .2.2.2.1-.1.3 0 .3.1.6 0-.1 0-.2.1-.3-.1.2 0 .2.1.2-.3.3-.1.5.1.6 0 .1-.1.1-.1.2 0 0 .3.2.2.1v.1c0 .1 0 .1.1.3 0 0-.1-.2 0-.2s0 .1.1.2c0 0 0-.1.1-.1 0-.1-.1 0-.1-.1 0 0 .2.1.3.1-.1-.1-.2-.1-.2-.1.3.3.2.1.2.5 0-.1 0-.2-.1-.2s0 .2 0 .2h-.3c.1.3.1.2.3.3 0 .1-.1 0-.1.1h.2c0-.1-.1-.2-.1-.2.2-.1.3-.1.6-.1-.4.2-.5.2-.2.5.1-.2.2-.2.3-.4l.1.1c-.1.1-.2.3-.2.4 0 0 .1-.2 0-.2l-.1.1c.7.6.3-.9 1.2-.7-.4-.4-.4-.7-.4-1.3.1 0 .8-.8.7-1.1-.1-.3-1.6-1.1-.1-1.2-.1-.3-.1-.7.2-1-.1 0-.2 0-.2-.1.2.1.1-.1.3.1.1-.2.1-.2.1-.4l-.2.1c-.1.1.3-.1 0 .1-.1-.1 0 0 0-.1-.3-.2-.3-.4-.2-.7.9.8.9-.5.8-.9.9.4 1.8-.2 1.8-1 0-.3-.7-.9-.7-1.5.1.8 1.3.8 1.7.5.4-.3.8-1.6.8-1.9.4.3.1.6-.2.9 1.3-.5 1-2.1 1.1-2.6.4-.3 1.3-.7 1.3-1 .1 0 .3-.1.4-.1l-.2.1c.2 0 .3-.1.4-.2 1.2.7 1.5-3.2 1.3-3.7.1.1.1 0 .2 0 0 0 0 .1.1.1l-.1.1c.5-.5 1.4-1.5 1.4-2.1zm-20.3-8c-.2.2.2-.1 0 0zm.1-1.2h-.6.6zm10.7 3.6c-.1.2.3-.4 0 0zM28.6 45.2s-.2-.2 0 0zM28.3 45.2c.2 0 .1 0 0 0z"/><path d="M28.8 45.3c-.1-.1-.2-.1 0 0zM28.2 45.4s.1.1 0 0zM28.3 44.3c.1.2.2.2 0 0zM28.3 45.2c-.1.1-.2 0-.2.2.1 0 .1-.1.2-.2zM28.4 45.1c.2-.3 0 .1 0 0zM23.3 41.2c.1-.2 0 .1 0 0zM21.4 40.7c.1.1.2.2 0 0zM21.7 40.7c.1.1.1.1 0 0zM21.1 40.6c.1.1.1.1 0 0zM17.3 46.2c-.1.3-.1.2 0 0zM25.7 67.9c-.2.3.1-.2 0 0zM25.3 67.9c-.5-.1-.9-.4-1.3-.6 0-.1.1-.1.1-.1-.2-.5-.5-.4-.7-.1.3.2-.1.2.4.2-.4.4.2.6.7.6-.4 0-.8 0-1.1-.1 0 .1.2.1.2.1h-.1c-.2 0-.2 0-.5.1.4.1.3.1.6.4l-.1-.1c.2-.1.1.1 0-.1.6-.1 1.7 0 1.8-.3zM21.9 66.7c-.1-.1-.1-.1 0 0zM21.9 66.8c.3.2.2.1 0 0zM21.8 66.8c0 .2 0 0 0 0zM22 66.6c0-.2-.1.3 0 0zM21.2 63.4c0 .1-.1.1 0 0zM22.4 67.5c.1 0-.4-.3-.5-.3.1.2.3.2.5.3zM22.6 67.8c.1 0 .1 0 0 0zM22 66.8c0-.1 0-.1 0 0zM21.8 66.7c-.1-.2 0-.1 0 0zM22 67c-.1 0 .1.1.1.1.1-.2 0-.1-.1-.1zM21.3 66c.1-.1.1 0 0 0zM21.2 65.3c0-.1.2-.1 0-.2-.1.1 0 .1 0 .2zM21.2 65.5c.1.1 0 .1 0 0z"/><path d="M21.4 65.7c.1 0 .1-.1.1.1 0-.3 0-.4-.2-.7 0 .1.1.3.1.2-.2.1-.1.2 0 .4zM21.1 65c-.2-.1 0 0 0 0zM21.6 66.5c0 .1-.1.1.1.2 0-.1-.1-.1-.1-.2zM21.3 65s.1-.2 0-.4h-.1c.1.2.1.3.1.4zM21 64.7c.1.1.1.2.2.4.1-.2-.1-.2-.2-.4zM21.7 66.4c.1 0 0-.1-.2-.2-.1.3.1.1.2.2zM21.7 66.1c-.1-.1-.1-.2-.2-.1.1 0 .4.1.2.1zM21.5 66.1c-.1-.2 0 0 0 0zM21.6 66.1c.1.1.2.3 0 0zM21.5 65.8c-.2.1-.2.1 0 0zM22.1 67.5c.1.1 0 0 0 0zM21.3 63.6c0-.1 0-.1 0 0zM21.3 63.3c0 .1-.1.2 0 0zM21.1 63c-.1 0-.1 0 0 0zM21.3 62c.1 0 .1 0 0 0zM21 63.6s.1-.1 0 0zM21.4 62.9c.1 0 .1 0 0 0zM21.3 63.2c-.2.1-.1.1 0 0zM21.4 62.7c0 .1 0 0 0 0zM20.9 61.9c0 .2.1.3 0 .5.1-.1.2 0 .3-.1 0-.1-.1-.1-.1-.2h.1c0-.1-.1 0-.1-.1.1-.3 0-.2-.2-.1zM21.4 63.1s.1.1.2-.1l-.1-.1c-.1 0 0 .2-.1.2zM21.1 63.2c.2-.2 0 0 0 0zM21 62.9c.1 0 .1 0 0 0zM21.1 62.9c0-.1 0-.1 0 0zM20.8 63.1c.2 0 0 0 0 0zM21.1 62.7c.1 0 .1 0 0 0zM23.4 67.5c0-.1-.1.1.1.3 0-.1-.1-.2-.1-.3zM21.3 63c-.1-.1-.1-.1 0 0zM21.2 63.6c-.1-.1-.1-.1 0 0zM20.8 62.6c.2 0 .2 0 0 0zM20.9 63.1c.1 0 .1-.1 0 0zM21.2 62.7c.2.1.1.1 0 0zM21.3 63.1s.1-.1 0 0zM23.3 68.3s.1 0 0 0zM24.7 68.5c.1.1.1.1 0 0zM23.2 67.9s.2 0 .2-.1H23s.2 0 .2.1zM22.9 67.7c-.2-.1-.4-.2-.6-.2.1.2.3.3.5.3l.1-.1zM22.9 67.8c0 .2 0 0 0 0zM24.6 68.6c.2 0 0 0 0 0zM23.3 68.2c-.1 0 0 0 0 0zM24.7 68.3c-.1-.2-.4-.2-.9-.1 0 .1.2 0 .1 0-.1.1-.1 0-.2.1.1 0 .1.1.3.1.1 0-.1-.1 0-.1s.2.1.4.2c-.1-.1-.1-.2-.3-.3.3 0 .4 0 .6.1zM24 39.1c.1-.1.1-.1 0 0zM24.3 39.1c.2.1.1.1 0 0zM24.2 39.2c.1.2.1.1 0 0zM24.4 39.3c0 .1 0 .1 0 0zM24.3 39.5c.2.1 0 0 0 0zM24.5 40c-.1.3-.1.3 0 0zM24.5 39.9s.1-.1-.1-.2c0 .1.1.2.1.2zM25 40.4c.2 0 .1 0 0 0zM24.2 40.7c.1.1.1.1 0 0zM24.4 40.3c0 .2 0 .2 0 0zM24.4 40.7c-.1-.1-.1-.1 0 0zM24.5 41.2c-.2.2-.3 0-.4.3.4.1.3-.1.4-.3zM24.6 41.1c-.1.1 0 .1 0 0z"/></g></svg>